<svg t="1692365596690" class="icon" viewBox="0 0 1024 1024" version="1.1" xmlns="http://www.w3.org/2000/svg" p-id="10533" width="200" height="200"><path d="M820.337778 302.648889v-125.155556c0-31.857778-25.031111-56.888889-56.888889-56.888889H647.395556c-4.551111-26.168889-27.306667-45.511111-54.613334-45.511111H447.146667c-26.168889 0-50.062222 19.342222-54.613334 45.511111H276.48c-31.857778 0-56.888889 25.031111-56.888889 56.888889v109.226667C62.577778 447.146667 67.128889 705.422222 227.555556 862.435556c161.564444 157.013333 419.84 153.6 576.853333-7.964445 147.911111-152.462222 153.6-391.395556 15.928889-551.822222z m-373.191111-204.8h145.635555c18.204444 0 31.857778 14.791111 31.857778 31.857778s-14.791111 31.857778-31.857778 31.857777H447.146667c-18.204444 0-31.857778-14.791111-31.857778-31.857777s13.653333-31.857778 31.857778-31.857778z m350.435555 638.293333c0 19.342222-14.791111 34.133333-34.133333 34.133334H276.48c-19.342222 0-34.133333-14.791111-34.133333-34.133334V177.493333c0-19.342222 14.791111-34.133333 34.133333-34.133333h117.191111c5.688889 25.031111 28.444444 42.097778 53.475556 42.097778h145.635555c25.031111 0 47.786667-17.066667 53.475556-42.097778h117.191111c19.342222 0 34.133333 14.791111 34.133333 34.133333v558.648889z" fill="#5768e9" p-id="10534"></path><path d="M519.964444 488.106667c69.404444 0 125.155556-55.751111 125.155556-125.155556s-55.751111-125.155556-125.155556-125.155555-125.155556 55.751111-125.155555 125.155555 55.751111 125.155556 125.155555 125.155556z m-60.302222-134.257778c4.551111-5.688889 12.515556-5.688889 18.204445-1.137778l31.857777 26.168889 64.853334-65.991111c5.688889-4.551111 13.653333-4.551111 18.204444 1.137778 4.551111 4.551111 4.551111 11.377778 0 17.066666l-72.817778 75.093334c-2.275556 2.275556-5.688889 3.413333-9.102222 3.413333-3.413333 0-5.688889-1.137778-7.964444-2.275556l-42.097778-32.995555c-4.551111-6.826667-5.688889-14.791111-1.137778-20.48zM333.368889 555.235556h373.191111v22.755555H333.368889zM333.368889 620.088889h373.191111v22.755555H333.368889zM333.368889 686.08h373.191111v22.755556H333.368889zM984.177778 955.733333L967.111111 919.324444l13.653333-36.408888c1.137778-2.275556 0-4.551111-1.137777-5.688889-1.137778-1.137778-4.551111-2.275556-5.688889-1.137778l-36.408889 15.928889-36.408889-13.653334c-2.275556-1.137778-4.551111 0-5.688889 1.137778-1.137778 2.275556-2.275556 4.551111-1.137778 5.688889L910.222222 921.6l-13.653333 37.546667v2.275555c0 3.413333 2.275556 5.688889 5.688889 5.688889h2.275555l36.408889-15.928889 36.408889 13.653334c2.275556 1.137778 4.551111 0 5.688889-1.137778 1.137778-3.413333 1.137778-5.688889 1.137778-7.964445z m-43.235556-17.066666h-4.551111l-26.168889 11.377777 10.24-26.168888v-4.551112l-11.377778-26.168888 26.168889 10.24h4.551111l26.168889-11.377778-10.24 26.168889v4.551111l11.377778 26.168889-26.168889-10.24zM910.222222 83.057778l-13.653333 36.408889v2.275555c0 3.413333 2.275556 5.688889 5.688889 5.688889h2.275555l36.408889-15.928889 36.408889 13.653334c2.275556 1.137778 4.551111 0 5.688889-1.137778 1.137778-2.275556 2.275556-4.551111 1.137778-6.826667L967.111111 80.782222l13.653333-36.408889c1.137778-2.275556 0-4.551111-1.137777-5.688889-1.137778-1.137778-4.551111-2.275556-5.688889-1.137777l-36.408889 15.928889-36.408889-13.653334c-2.275556-1.137778-4.551111 0-5.688889 1.137778-1.137778 2.275556-2.275556 4.551111-1.137778 5.688889L910.222222 83.057778z m25.031111-19.342222c1.137778 1.137778 3.413333 1.137778 4.551111 0l26.168889-11.377778-10.24 26.168889v4.551111l11.377778 26.168889-26.168889-10.24c-1.137778-1.137778-3.413333-1.137778-4.551111 0l-26.168889 11.377777 10.24-26.168888V79.644444l-11.377778-26.168888 26.168889 10.24zM120.604444 261.688889c1.137778-1.137778 2.275556-4.551111 1.137778-6.826667l-15.928889-36.408889 13.653334-36.408889c1.137778-2.275556 0-4.551111-1.137778-5.688888-1.137778-1.137778-4.551111-2.275556-5.688889-1.137778l-36.408889 15.928889-36.408889-13.653334c-2.275556-1.137778-4.551111 0-5.688889 1.137778-1.137778 1.137778-2.275556 4.551111-1.137777 5.688889l17.066666 36.408889L34.133333 259.413333c-1.137778 2.275556 0 4.551111 1.137778 5.688889 1.137778 1.137778 2.275556 1.137778 3.413333 1.137778h2.275556L77.368889 250.311111l36.408889 13.653333c2.275556 0 4.551111 0 6.826666-2.275555zM79.644444 238.933333h-4.551111l-25.031111 11.377778 9.102222-27.306667c1.137778-1.137778 1.137778-3.413333 0-4.551111l-11.377777-25.031111 26.168889 10.24c1.137778 1.137778 3.413333 1.137778 4.551111 0l26.168889-11.377778-10.24 26.168889v4.551111l11.377777 26.168889L79.644444 238.933333z" fill="#5768e9" p-id="10535"></path></svg>