<?xml version="1.0" encoding="utf-8"?>
<!-- Generator: Adobe Illustrator 25.2.3, SVG Export Plug-In . SVG Version: 6.00 Build 0)  -->
<svg version="1.1" id="_7" xmlns="http://www.w3.org/2000/svg" xmlns:xlink="http://www.w3.org/1999/xlink" x="0px" y="0px"
	 viewBox="0 0 1024 1024" style="enable-background:new 0 0 1024 1024;" xml:space="preserve">
<style type="text/css">
	.st0{fill:#FEFCEF;}
	.st1{fill:#F1F8E1;}
	.st2{fill:#FEFEFD;}
	.st3{fill:#FCF0AA;}
	.st4{fill:#D8EDAB;}
	.st5{fill:#F8FCF2;}
	.st6{fill:#83769C;}
</style>
<g>
	<path class="st0" d="M704,322c2,0.2,2.6,1.5,2.9,3.3c0.6,3.7,1.2,7.4,3,10.7c0,7.3,0,14.7,0,22c-1.9,1.6-0.4,5.3-3.7,6
		c2.7-7.4,2.3-15.3,2.1-22.8C708,334.8,705.5,328.4,704,322z"/>
	<path class="st1" d="M309.1,595c2.1-0.1,3.4-1.3,3.9-3.2c0.9-3.2,3.1-4,6-3.8c-9.2,6.9-9.6,18.5-4.5,28.2c0.8,1.6,0.5,3.2,0.5,4.9
		c-2.7-0.3-1.5-2.9-2.6-4.2c-1.3-1.5-0.6-4.4-3.4-4.9C309.1,606.3,309.1,600.6,309.1,595z"/>
	<path class="st2" d="M309.1,452c1.3-0.3,2.7-0.7,4-1c1.4,1.3,1.4,2.7,0.1,4c-1.4-0.3-2.7-0.7-4.1-1
		C309.1,453.4,309.1,452.7,309.1,452z"/>
	<path class="st3" d="M313.2,455c1.3-1.4,1.3-2.7-0.1-4c0-1.3,0-2.7,0-4c1.4-1.8,1.9-3.8,1.9-6c0.1-1,0.1-2,0.2-3
		c1.4-1.8,1.9-3.8,1.9-6c0-0.7,0.1-1.3,0.1-2c1.4-1.8,1.4-3.9,1.8-6c0.1-1,0.1-2,0.2-3c1-1.7,2-3.3,3-5c1.2-0.7,0.9-1.9,0.9-3
		c5.7-6.5,9.2-14.9,16.5-20c1.2-0.8,1.9-2.2,0.5-3.3c-2.2-1.8-3.2-4.6-5.9-5.8c0-0.8-0.2-1.4-0.9-1.9c-1.3-3.2-3.8-5.5-6.2-7.9
		c0-0.7-0.1-1.3-0.1-2c-0.6-5-5-8.2-5.9-13c-0.5-2-2.7-3.6-2.1-6c-1.1-1.5-0.3-3.7-1.9-5c0-1.7,0-3.3-0.1-5c0.1-7.7-1.4-15.3-0.1-23
		c0-0.7,0.1-1.3,0.1-2c1.4-1.8,1.9-3.8,1.9-6c0.1-1,0.1-2,0.2-3c1.3-1.4,1.6-3.2,1.8-5c0.1-1,0.1-2,0.2-3c0.9-2.6,3.5-4.1,3.9-7
		c0-0.7,0.1-1.3,0.1-2c1.1-1.3,2.7-2.1,3.1-4c1.1-0.8,0.9-1.9,0.9-3c4-5,8-10,12.1-14.9c0,0,0,0,0,0c1.9-0.1,2.9-1.5,4-2.7
		c8.7-9.1,19.7-13.9,31.7-16.8c5.1-1.2,10.2-2.4,15.2-3.5c1.3,0,2.7-0.1,4-0.1c2-0.1,4-0.1,6-0.2c1,0.1,2,0.1,3,0.2
		c1.7,1.5,3.9,1.4,6,1.8c1,0.1,2,0.1,3,0.2c0.6,1,1.7,0.8,2.6,1.1c6.4,2.6,13.9,1.5,19.6,6.3c1.4,1.2,3.1,0.1,3.8-1.2
		c2-3.9,4.2-7.8,5.6-12c2.3-6.4,5.6-12.2,8.9-18.1c3.4-6,8.8-10.6,11.4-17.1c0.7-0.4,1.4-0.7,2-1.1c3-1.9,5.3-4.2,6.1-7.8
		c0,0,0,0,0,0c2.2-0.3,4.6-1.1,5.7-2.7c3.3-5,9-6.5,13.3-9.8c2.7-2.1,7-0.9,9-4.5c1,0,2-0.1,3-0.1c11.2-4.3,22.6-5.2,34.3-1.7
		c5.2,1.5,10.8,2,15.8,4c4.4,1.8,8.3,5.1,12.3,7.7c1.5,1,3,2,4.5,3.1c0.4,2.3,2.2,2.6,4,3.1c0.3,0.3,0.6,0.6,1,1
		c0.2,1.8,1.3,2.8,3,3.1c0.4,0.9,0.8,1.9,1.2,2.8c0.2,2.4,2.2,2.6,3.9,3.1c1.4,2.3,2.7,4.6,4.1,6.9c0.7,2.4,1,5.1,3.9,6.1
		c0.7,1.3,1.4,2.6,2.1,3.9c0,2.5-0.8,5.3,2.8,6.2c0.1,0.9,0.2,1.9,0.3,2.8c-1.1,2.9,1.3,5,2,7.4c3.8,13.6,5.8,27.5,6.8,41.6
		c0.2,2.7,0.6,5.4,4,6c0.7,0,1.3,0.1,2,0.1c3,1.5,3.3-1.1,4-2.7c1-2.5,2.9-4.1,5.3-4.9c10.3-3.6,20.8-5.3,31.8-3.6
		c0.7,0,1.3,0.1,2,0.1c1.7,1.5,3.7,2.1,6,1.9c1,0.1,2,0.1,3,0.2c1.4,1.4,3.2,1.6,4.9,2.1c0.6,1.3,1.6,1.9,3.1,1.8
		c1.9,1.4,3.3,3.8,6,4c0.3,0.1,0.6,0.1,0.9,0.1c0.5,3.6,3.8,2.9,6,4.1c0.2,1.8,1,2.8,2.9,3c1.1,3,2.6,5.8,5.2,7.9
		c0.5,1.3,1.4,2.1,2.8,2.1c0.4,3.2-0.1,6.8,4.1,8.1c0,1.1,0,2.2,1.2,2.8c0.4,1.8-1.2,4.3,1.9,5.1c0,0.3,0.1,0.6,0.2,0.9
		c1.5,6.4,4,12.8,4.2,19.2c0.3,7.6,0.7,15.4-2.1,22.8c-0.1,1-0.1,2-0.2,3c-1.5,1.7-2.2,3.7-1.8,6c-0.1,1-0.1,2-0.2,3
		c-1.5,1.7-2.1,3.7-1.8,6c0,0.7-0.1,1.3-0.1,2c-3.3,3.8-4.5,8.7-7,13c-0.1,1.7-1.5,2.5-2.2,3.8c-2.2,1-3.3,2.9-3.8,5.2
		c-0.1,0.3-0.1,0.6-0.1,0.9c-1.6,0.3-3,1-2.7,2.8c0.3,1.9,1.6,3.1,3.8,3.1c0.7,0,1.3,0.1,2,0.1c0.9,4.3,0.9,9,4.9,12.1
		c0,0.6,0,1.2,0,1.8c-1.3,2.7-1.5,5.1,2,6.2c0.1,1.3,0.1,2.6,0.2,3.8c-1.9,3.2,0.7,6.6-0.3,9.6c-2,6.1,0,12.4-1.8,18.4
		c-2,1.1-2.7,2.9-2.9,5c-2.1,3-1.8,6.7-3.2,9.9c-2.3,1.3-2.1,4.4-3.9,6c-3.6,3.6-7.5,6.9-9,12c0,0,0,0,0,0c-1.8,0.2-2.8,1.2-3,3
		c-0.3,0-0.6,0.1-0.9,0.1c-2.4,0.2-2.6,2.2-3.1,3.9c-0.3,0-0.6,0-0.9,0.1c-1.3,0-1.9,0.7-2.1,1.9c-0.3,0-0.6,0-0.9,0.1
		c-1.3,0-1.9,0.7-2.1,1.9c-1,0.4-1.9,0.8-2.9,1.1c-1.9,0.2-3.6,0.7-4.1,2.9c-1.7,0-2.5,1.5-3.9,2.1c-1.3,0-1.9,0.7-2.1,1.9
		c-0.3,0-0.6,0-0.9,0.1c-4.2-0.1-8,0.7-11.1,3.9c-1.6,0.4-3.3,0.8-4.9,1.2c-2.1,0.8-5-0.2-6.2,2.7c-0.9,0-1.8,0-2.7,0
		c-0.5-2.1-1.8-1.6-3.4-1.3c-6.5,1-13.1,0.9-19.7,0.7c-1,0-2-0.1-3-0.1c-2.2-1.3-4.3-2.7-7-1.3c-0.6,0-1.2,0-1.8,0
		c-1.5-2.5-3.5-3.4-6.2-2c-0.6,0-1.2,0-1.8,0c-2.5-3.4-3.9-1.4-5.2,1.1c-0.8,0.1-1.5,0.3-1.9,1c-2.6,1.7-5.1,3.4-4.8,7
		c0,0.7-0.1,1.3-0.1,2c-1.6,1.7-2.1,3.7-1.9,6c0,0.7-0.1,1.4-0.1,2c-1.1,2.4-3.6,4.1-3.9,7c-0.2,1.1-0.2,2.3-1.2,3
		c-2.4,0.2-2.6,2.2-3.1,3.9c-0.6,0.7-1.3,1.4-1.9,2.1c-3.5,0.4-5.4,2.6-6.1,5.9c-0.3,0-0.6,0-0.9,0.1c-1.3,0-1.9,0.7-2.1,1.9
		c-0.3,0-0.6,0-0.9,0.1c-1.6,0.3-3.5,0.2-4.7,1.1c-2.9,2.1-7.8,0.3-9.4,4.8c-0.3,0-0.6,0.1-0.9,0.1c-2.3-0.3-4.4,0.1-6,1.8
		c-1,0-2,0-2.9-0.1c-1.7-1.5-3.8-0.9-5.7-0.7c-5.8,0.5-11.6,0.7-17.4,0.1c-0.7,0-1.3-0.1-2-0.1c-2-1.8-4.4-2.3-7-1.9
		c-0.7,0-1.3-0.1-2-0.1c-1.7-1.6-3.7-2.2-6-1.8c-0.7,0-1.3-0.1-2-0.1c-1.8-1.3-3.7-2-6-1.2c-0.9,0-1.9,0-2.8,0
		c-1.4-2.5-3.5-3.3-6.2-2.1c-0.6-0.6-1.2-1.2-1.9-1.9c-1.8-2.7-4.3-3-7.1-2.1c-0.6-0.6-1.3-1.3-1.9-1.9c-0.2-1.9-1.6-2-3.1-1.9
		c-0.3-0.3-0.7-0.7-1-1c-0.7-1.9-2.3-2.1-4-1.9c-0.4-0.4-0.7-0.7-1.1-1.1c-0.2-2.4-2.2-2.6-3.9-3l0,0c-2.1-3-4.5-5.6-7.9-7.1
		c0-0.3,0-0.6-0.1-0.9c-2.9-2.8-3.7-7.4-8-8.9c-1.2-0.2-1.9-0.9-2-2.1c0.3-2.3,0.5-4.7,0.8-7c0-0.7,0.1-1.3,0.1-2
		c2.2-2.8,0.1-4.5-1.9-5.8c-1.6-1-3.9-2.6-5,0.8c-0.3,0-0.6,0.1-0.9,0.1c-5.8,1.6-11.6,3.3-17.5,4.8c-2.2,0.5-4.4,1.9-6.7,0.9
		c-2.9-1.3-5.4-0.4-7.9,1.1c-0.6,0-1.2,0-1.8,0c-1.7-2.8-4.6-2.4-7.2-2.6c-0.7-0.1-1.3-0.1-2-0.2c-1.8-1.3-3.6-2.7-6-1.2
		c-0.6,0-1.2,0-1.8,0c-4.5-3.5-9.7-4.3-15.2-4c-0.4-0.6-0.7-1.2-1.1-1.9c-1.2-2.5-3.8-2.2-5.9-3.1c-0.3-0.1-0.5-0.1-0.8-0.1
		c-1.5-2.4-3.4-4.1-6.2-4.9c-0.4-0.8-1-1.1-1.8-1.1c-1.7-2.6-2.3-6.2-6.2-6.8c0,0,0,0,0,0c-1.3-3.2-2.7-6.3-5.9-8.1
		c-2.3-4.5-4.6-9.1-8-12.9c0-0.7-0.1-1.3-0.1-2c0.1-2.2-0.5-4.2-1.9-6c0-0.7-0.1-1.3-0.1-2c-0.1-2.5-0.6-4.9-2-7
		C313.1,457.7,313.1,456.4,313.2,455z M620.7,378.4c-1.5-10.2-3.6-21.3-8.9-31.1c-9.1-16.9-20-32.4-37.3-42.6
		c-12.1-7.2-24.3-13.3-38.2-16.5c-8.4-1.9-16.9-3.3-25.4-2.7c-10.2,0.7-20.3,1.5-30.4,4.3c-9.4,2.5-18.4,6.2-27.1,9.9
		c-11.6,4.9-20.9,13.8-29.4,23.1c-10.6,11.6-17.2,25.6-22.4,40.2c-1.5,4.2,0.1,9.3-1.2,13c-2.5,7.2-0.4,13.9,0.2,20.4
		c1.5,17.1,8,32.5,18.2,46.6c8.2,11.3,18.5,20,29.9,27.7c4.8,3.3,9.8,5.8,15.1,8c7.7,3.2,15.3,6.6,23.3,9c2.8,0.8,5.2-1.3,7.8-0.4
		c9.6,3,19.4,1.9,29,0.7c15.2-2,30.1-5.8,43.4-13.7c6.1-3.6,12.1-7.5,17.7-12.2c5.5-4.6,10.4-9.7,14.9-14.9
		c8.6-9.9,13.7-22.2,18.9-34.2c1.1-2.6,1.7-5.4,0.8-8.3c-0.4-1.3-0.7-2.5-0.1-3.9c2.1-5,1.7-10.3,1.5-15.5
		C621,383.2,619.6,381.4,620.7,378.4z"/>
	<path class="st4" d="M315,621c-0.1-1.6,0.3-3.3-0.5-4.9c-5.1-9.7-4.7-21.3,4.5-28.2c0,0,0,0,0,0c2.5,0.6,4.7-1,7.1-1
		c1,0,1.9-0.1,2.9-0.1c7.6,0.1,14.6,3.3,22.1,4c1,0,2,0.1,2.9,0.1c1.6,1.9,3.7,2.2,6,1.9c0.7,0,1.3,0.1,2,0.1c1.7,1.5,3.8,2,6,1.9
		c0.6,0.4,1.3,0.8,1.9,1.2c1.5,3.2,4.4,2.7,7.1,2.9c0.6,0.4,1.3,0.8,1.9,1.2c1.1,2.9,3.8,2.6,6.1,2.9c6.6,4,13.4,7.7,19.6,12.2
		c9.9,7.1,20.2,13.7,28.4,22.9c3.9,4.3,8.1,8.3,12.6,12c4.5,3.7,9.6,1.6,10.2-4.1c0.3-3.5,1.6-6.8,2.3-10.2
		c2.4-10.6,3.3-21.5,5.1-32.1c1.3-7.6,2.2-15.5,3.8-23.2c1.4-6.7,5.3-8.6,10.7-4.5c4.3,3.3,9,3.9,13.7,5c3.2,0.8,3.8,2.2,2.9,4.9
		c-3.2,10.2-3.2,21-5.1,31.5c-2.3,12.4-2.9,25.1-5,37.6c-0.9,5.3-1.1,10.9-2,16.4c-0.5,2.9,3.4,5.4,6.3,4.3c1.5-0.6,3.1-1.4,4.2-2.6
		c5.5-5.7,12.9-8.7,19.1-13.3c4.2-3.1,9.3-4.1,14-6.3c15.1-7.2,31.5-10.7,47.9-13.7c11.8-2.2,23.8-3.4,36-3.2
		c13.4,0.3,26.7,1.2,39.1,5.8c7.4,2.7,16.4,5.5,18.1,15.4c1.1,6.2-0.8,12.2-4,17.4c-6.6,10.8-17.6,16.6-28,22.7
		c-18.5,10.9-38.8,16.6-59.6,20.6c-13.1,2.5-26.5,4-40,3.7c-10.8-0.2-21.5,0.5-32.3-0.1c-2.7-0.1-5.2-0.6-7.9-1.1
		c-6.1-1.2-12.4-0.5-18.5-1.9c-2.3-0.5-4.1,2-4.7,4.4c-2.3,10-5.9,19.9-6.4,30c-0.5,9.8-4.7,18.7-4.7,28c0,9.1-4.4,17.3-4.2,25.8
		c0.3,11.4-3.9,21.4-5.8,32.1c-1.3,7-5.3,10.3-10.1,9.3c-7.6-1.6-11.2-7.9-11.2-14.6c0-9.4,4.3-18.3,2.6-27.7c0-0.2,0-0.3,0.1-0.5
		c4.3-9.7,2.9-20.4,5-30.5c1.5-7,2.5-14.5,2.7-21.8c0.1-4.4,1.4-8.6,1.4-12.8c0-6,2.1-11.9,0.8-17.9c0-0.2-0.1-0.3-0.1-0.5
		c-0.2-3.6,3.6-8.3-2.4-10.2c-3.7-1.2-7.5-2.4-11.3-3.4c-7.6-2.1-15.1-5-22.5-8c-6.1-2.4-11.5-6.1-17.3-9
		c-5.9-2.9-11.3-6.8-16.7-10.5c-7.1-4.8-13.8-10.2-20.3-15.8c-2.8-2.5-4.8-5.9-8.4-7.6c-1-2.2-2-4.5-4.2-5.8c-0.7-0.3-1.3-0.7-2-1
		c0-1.9-1-2.9-2.9-3.1c0,0,0,0,0,0c-2.8-5-5.9-9.9-11-13c-1.1-2-2.1-3.9-3.2-5.9c-0.6-3.1-1.9-5.6-4.8-7.1
		C315.1,621.6,315.1,621.3,315,621z M570.5,685.8c0.5-0.1,1.6-0.4,2.7-0.8c8.8-2.8,17.6-5.7,26.5-8.5c2.5-0.8,5.1-1.5,7.2-3.2
		c0.7-0.6,1.1-1.2,0.8-2.2c-0.2-0.8-1-1.3-1.5-1c-2.8,1.7-5.8-0.1-8.7,0.7c-9.6,2.6-19.3,4.7-28.9,7.1c-10.6,2.6-21.1,5.3-31.7,7.8
		c-1.5,0.4-2.9,0.6-4.1,1.7c-0.9,0.8-2.9,1.1-2.2,2.8c0.6,1.4,2.4,1.8,3.9,1.6c7.2-1.1,14.4-2.5,21.6-3.3
		C560.8,687.9,565,685,570.5,685.8z M402.9,657.4c-0.6-2.1-1.5-3.6-2.9-4.8c-12.4-10.8-26.1-19.9-39.4-29.5
		c-1.6-1.2-3.6-1.9-4.9-0.4c-1.4,1.7,0.7,2.9,1.7,4.1c7.7,8.5,16.1,16.3,26.3,22c5.1,2.9,9.9,6.3,15,9.3
		C400.1,659,402,659.8,402.9,657.4z"/>
	<path class="st0" d="M387,522.9c2.5-1.5,4.9-2.4,7.9-1.1c2.3,1,4.5-0.4,6.7-0.9c5.9-1.4,11.6-3.2,17.5-4.8c0,0.6,0,1.3,0,1.9
		c-1.4,0-2.4,0.7-3,2c-2.1,0-4.1-0.2-6,1c-1.1,0-2.3-0.2-3,1c-1.8-0.1-3.5,0.1-5,1c-1.1,0-2.3-0.2-3,1c-1.3,0-2.7,0-4,0
		c-2-2.3-4,0-6,0c-0.7,0-1.3,0-2,0C387.1,523.6,387,523.3,387,522.9z"/>
	<path class="st0" d="M697,465c1.8-6-0.2-12.3,1.8-18.4c1-3-1.7-6.4,0.3-9.6c3,2,2.1,5.8,1.6,7.7c-1.5,6.1,0,12.4-1.7,18.5
		C698.6,464.3,698.1,464.9,697,465z"/>
	<path class="st2" d="M317.1,476c3.4,3.9,5.7,8.4,8,12.9c0.3,1.4,0.6,2.7,1,4.1c-1.9,0-2.5-1.6-3.2-2.8c-1.9-3.4-3.3-7-6.4-9.8
		C315.4,479.5,313.4,476.9,317.1,476z"/>
	<path class="st0" d="M602.9,524.3c6.6,0.2,13.2,0.4,19.7-0.7c1.6-0.3,2.9-0.8,3.4,1.3c-6.5,2.4-13.5,0.8-20.2,2
		C604.2,527.2,603.2,526,602.9,524.3z"/>
	<path class="st0" d="M502,571.2c5.8,0.6,11.6,0.4,17.4-0.1c1.9-0.2,4-0.7,5.7,0.7c-3.8,1.7-8,1.8-12,2.1c-1.3-1.4-2.7-1.4-4,0
		c-1.7,0-3.3,0-5,0C503.5,573,502,572.7,502,571.2z"/>
	<path class="st2" d="M453,555c0.3,0.3,0.7,0.7,1,1c0.2,2,1.6,2,3.1,1.9c0.6,0.6,1.3,1.3,1.9,1.9c0,0.4,0,0.8,0,1.1
		c-6.5-1-11.6-4.2-15-10l0,0c1.3,0.3,2.6,0.7,3.9,1c0.4,0.4,0.7,0.7,1.1,1.1C449.4,555.6,451.4,554.8,453,555z"/>
	<path class="st1" d="M351.1,590.8c-7.5-0.7-14.5-3.9-22.1-4c0.3-1.7,1.6-2,3-1.8c5.9,1.3,11.8,2.6,17.7,4
		C350.6,589.3,351,590,351.1,590.8z"/>
	<path class="st2" d="M474.2,565.9c0.9,0,1.9,0,2.8,0c1.7,1.7,3.5,3,6,1.2c0.7,0,1.3,0.1,2,0.1c0,1.4,1.5,1.7,2,2.7
		c-5.4,0.3-10.7,0.2-15-4C472.7,566,473.5,565.9,474.2,565.9z"/>
	<path class="st1" d="M323.2,634.9c5.1,3.1,8.1,8,11,13c-0.5-0.1-1.2,0-1.4-0.2C329.6,643.4,324.8,640.3,323.2,634.9z"/>
	<path class="st0" d="M534.9,570c1.6-4.5,6.4-2.7,9.4-4.8c1.2-0.9,3.1-0.8,4.7-1.1c-1.4,4.9-6.6,2.4-9.4,4.7
		C538.5,569.7,536.5,569.6,534.9,570z"/>
	<path class="st0" d="M695,397.1c2.5-4.2,3.8-9.1,7-13C703,387.6,698.3,396.2,695,397.1z"/>
	<path class="st0" d="M677.9,498c1.5-5.1,5.4-8.5,9-12C685.7,491.3,682.3,495,677.9,498z"/>
	<path class="st0" d="M353,514.9c5.5-0.2,10.7,0.6,15.2,4c-1,0-2.1,0.1-3.1,0.1c-1.2-0.7-2.5-1.2-4-1c-1.4-1.6-3.3-0.8-5-1
		c-0.7-1.2-1.9-1-3-1C353.1,515.6,353.1,515.3,353,514.9z"/>
	<path class="st0" d="M696.8,425.2c-4-3.1-4-7.8-4.9-12.1C695,416.5,697.3,420.3,696.8,425.2z"/>
	<path class="st0" d="M639.8,521c3.1-3.1,6.9-4,11.1-3.9C647.7,519.7,644.1,521.3,639.8,521z"/>
	<path class="st0" d="M428,532.1c4.3,1.4,5.1,6.1,8,8.9c-0.7,0-1.3,0-2,0c-0.7-0.3-1.3-0.7-2-1c-0.6-2.5-1.9-4.5-4-6
		C428,533.4,428,532.8,428,532.1z"/>
	<path class="st2" d="M313.1,459c1.3,2.1,1.9,4.5,2,7C310.4,463.8,309.9,462,313.1,459z"/>
	<path class="st0" d="M420,516c1.1-3.4,3.4-1.9,5-0.8c2,1.3,4.1,3,1.9,5.8c-0.3-0.3-0.6-0.6-0.9-1c-0.3-2.4-1.6-3.7-4-4
		C421.4,516,420.7,516,420,516z"/>
	<path class="st0" d="M436.1,541.9c3.4,1.6,5.8,4.1,7.9,7.1c-0.7,0-1.3,0-2,0c-0.7-0.3-1.3-0.7-2-1
		C439.2,545.7,435.9,544.9,436.1,541.9z"/>
	<path class="st2" d="M315.2,468c1.4,1.8,1.9,3.8,1.9,6C312.1,472.2,311.7,470.9,315.2,468z"/>
	<path class="st0" d="M690.8,480c1.4-3.2,1.1-6.9,3.2-9.9C694.7,473.9,694.6,477.5,690.8,480z"/>
	<path class="st0" d="M326.1,493c-0.3-1.4-0.6-2.7-1-4.1c3.2,1.8,4.6,4.9,5.9,8.1C328.2,497.2,328.3,493.7,326.1,493z"/>
	<path class="st0" d="M565.2,547c0.3-2.9,2.8-4.5,3.9-7C571.3,544.3,568.1,545.6,565.2,547z"/>
	<path class="st0" d="M331.1,497c3.9,0.7,4.5,4.3,6.2,6.8c-1.1-0.3-2.1-0.6-3.2-0.9c-0.1-2-1.4-3.1-3-4
		C331.1,498.4,331.1,497.7,331.1,497z"/>
	<path class="st0" d="M571.2,530c-0.3-3.6,2.2-5.3,4.8-7C576,526.5,573.6,528.3,571.2,530z"/>
	<path class="st0" d="M552.9,561.9c0.7-3.3,2.6-5.5,6.1-5.9C557.9,559,556,561.1,552.9,561.9z"/>
	<path class="st0" d="M689.9,412.9c-2.1,0-3.4-1.2-3.8-3.1c-0.3-1.8,1.1-2.5,2.7-2.8C688.6,409,689.5,410.9,689.9,412.9z"/>
	<path class="st2" d="M436.1,541.9c-0.2,3,3,3.8,3.9,6.1c-4.9,0.2-5.1-3.8-6-7c0.7,0,1.3,0,2,0C436.1,541.3,436.1,541.6,436.1,541.9
		z"/>
	<path class="st1" d="M315.2,621.9c2.9,1.5,4.3,4,4.8,7.1C316.3,628,316.1,624.8,315.2,621.9z"/>
	<path class="st0" d="M698.8,433.2c-3.5-1.1-3.4-3.5-2-6.2C698.9,428.6,699,430.8,698.8,433.2z"/>
	<path class="st0" d="M426.8,523c-0.3,2.3-0.5,4.7-0.8,7C422.1,527.2,424,525,426.8,523z"/>
	<path class="st0" d="M493,569.2c2.6-0.4,5,0.1,7,1.9c-0.3,0.3-0.6,0.6-0.9,0.9c-2-0.3-4-0.7-6-1C493,570.4,493,569.8,493,569.2z"/>
	<path class="st1" d="M377.1,598.9c-2.7-0.1-5.6,0.4-7.1-2.9C372.7,596.2,375.6,595.7,377.1,598.9z"/>
	<path class="st2" d="M353,514.9c0,0.4,0,0.7,0,1.1c-2.5-0.1-5.2,0.3-6-3c1.6,0,3.3,0,4.9,0C352.3,513.6,352.7,514.3,353,514.9z"/>
	<path class="st0" d="M459,561c0-0.4,0-0.8,0-1.1c2.8-0.9,5.3-0.6,7.1,2.1c-1,0-2.1,0-3.1,0C461.8,561.3,460.5,560.8,459,561z"/>
	<path class="st0" d="M339.1,505c2.8,0.7,4.7,2.5,6.2,4.9c-0.7,0-1.5,0.1-2.2,0.1c-0.4-0.8-1.2-1-2-1
		C340.5,507.6,338.9,506.8,339.1,505z"/>
	<path class="st0" d="M378,520.3c2.6,0.3,5.5-0.2,7.2,2.6c-1,0-2.1,0.1-3.1,0.1c-1.2-0.7-2.5-1.2-4-1C378,521.4,378,520.8,378,520.3
		z"/>
	<path class="st0" d="M592.9,522.9c2.7-1.4,4.8-0.1,7,1.3C597.2,526,595.1,524.2,592.9,522.9z"/>
	<path class="st1" d="M326.1,586.9c-2.4,0-4.6,1.6-7.1,1C321.1,585.5,323.3,583.7,326.1,586.9z"/>
	<path class="st2" d="M389.1,524c2,0,4-2.3,6,0C393.1,525.3,391.1,528.2,389.1,524z"/>
	<path class="st1" d="M360.1,592.9c-2.3,0.3-4.4,0-6-1.9C356.8,589.4,358.7,590.3,360.1,592.9z"/>
	<path class="st0" d="M487,570c-0.5-1-2-1.3-2-2.7c2.3-0.3,4.3,0.3,6,1.8c-0.4,0.8-1.2,0.9-1.9,0.9C488.3,570,487.7,570,487,570z"/>
	<path class="st1" d="M385.1,603c-2.3-0.3-5,0-6.1-2.9C381.5,600,384.1,599.7,385.1,603z"/>
	<path class="st0" d="M569.2,538c-0.3-2.3,0.3-4.3,1.9-6C572.8,534.8,571.8,536.7,569.2,538z"/>
	<path class="st0" d="M584.9,520.9c2.7-1.4,4.7-0.5,6.2,2C588.8,523.2,586.6,523,584.9,520.9z"/>
	<path class="st0" d="M704.2,373.1c-0.3-2.3,0.3-4.3,1.8-6C707.7,369.8,706.8,371.7,704.2,373.1z"/>
	<path class="st0" d="M628.8,524.9c1.2-2.9,4.1-1.9,6.2-2.7C634.2,526.1,631.2,524.8,628.8,524.9z"/>
	<path class="st1" d="M368.1,594.9c-2.2,0.1-4.3-0.4-6-1.9C364.8,591.4,366.7,592.3,368.1,594.9z"/>
	<path class="st0" d="M689,406.1c0.5-2.3,1.6-4.1,3.8-5.2C693.1,403.8,691.9,405.5,689,406.1z"/>
	<path class="st2" d="M428,534c2.1,1.5,3.4,3.5,4,6C428.6,539.4,428.3,536.7,428,534z"/>
	<path class="st1" d="M339,652c2.2,1.3,3.2,3.6,4.2,5.8C339.5,657.6,339.5,654.7,339,652z"/>
	<path class="st2" d="M499,572c0.3-0.3,0.6-0.6,0.9-0.9c0.7,0,1.3,0.1,2,0.1c0,1.4,1.5,1.7,2,2.7C501.7,575,499.9,574.5,499,572z"/>
	<path class="st0" d="M528,571.9c1.7-1.8,3.8-2.1,6-1.8C532.6,572.8,530.5,572.9,528,571.9z"/>
	<path class="st0" d="M370.1,518.9c2.4-1.6,4.2-0.1,6,1.2c-0.4,0.8-1.2,0.9-2,0.9c-1.2-0.7-2.5-1.2-4-1
		C370.1,519.6,370.1,519.3,370.1,518.9z"/>
	<path class="st0" d="M352,513c-1.6,0-3.3,0-4.9,0c-0.3-1-0.7-2-1-3C348.1,510.8,350.8,510.6,352,513z"/>
	<path class="st0" d="M474.2,565.9c-0.7,0-1.4,0.1-2.2,0.1c-1.2-0.7-2.5-1.2-4-1c0-0.4,0-0.8,0-1.2
		C470.7,562.6,472.7,563.4,474.2,565.9z"/>
	<path class="st0" d="M702.2,382.1c-0.3-2.3,0.3-4.3,1.8-6C705.6,378.7,704.4,380.6,702.2,382.1z"/>
	<path class="st2" d="M468,563.8c0,0.4,0,0.8,0,1.2c-2.2-0.1-4.4-0.2-5-3c1,0,2.1,0,3.1,0C466.7,562.6,467.4,563.2,468,563.8z"/>
	<path class="st2" d="M382.1,523c1,0,2.1-0.1,3.1-0.1c0.6,0,1.2,0,1.8,0c0,0.4,0,0.7,0,1.1C385.1,525.3,383.2,526.1,382.1,523z"/>
	<path class="st2" d="M374.1,521c0.8,0,1.5-0.1,2-0.9c0.7,0.1,1.3,0.1,2,0.2c0,0.6,0,1.2,0.1,1.7C376.3,523.4,374.8,523.8,374.1,521
		z"/>
	<path class="st0" d="M577.9,522c1.3-2.5,2.7-4.5,5.2-1.1C581.4,521.3,579.6,521.6,577.9,522z"/>
	<path class="st2" d="M370.1,518.9c0,0.4,0,0.7,0,1.1c-2,1.3-3.9,2.1-5-1c1,0,2.1-0.1,3.1-0.1C368.8,518.9,369.4,518.9,370.1,518.9z
		"/>
	<path class="st2" d="M489,570c0.8,0,1.5-0.1,1.9-0.9c0.7,0,1.3,0.1,2,0.1c0,0.6,0,1.2,0,1.8C491.3,572.4,489.7,572.8,489,570z"/>
	<path class="st2" d="M356.1,517c1.7,0.2,3.6-0.6,5,1C359.1,519.3,357.2,520.1,356.1,517z"/>
	<path class="st2" d="M422,516c2.4,0.3,3.7,1.6,4,4C423.7,519.7,422.3,518.4,422,516z"/>
	<path class="st0" d="M657.8,513c0.5-2.2,2.2-2.7,4.1-2.9C661.5,512.4,659.7,512.7,657.8,513z"/>
	<path class="st0" d="M560.9,553.9c0.5-1.7,0.7-3.7,3.1-3.9C563.6,551.9,563.3,553.8,560.9,553.9z"/>
	<path class="st0" d="M670.8,505c0.5-1.7,0.7-3.7,3.1-3.9C673.5,502.9,673.3,504.8,670.8,505z"/>
	<path class="st2" d="M331.1,499c1.6,0.9,2.9,2,3,4C331.5,502.9,331,501.2,331.1,499z"/>
	<path class="st2" d="M509,574c1.3-1.4,2.7-1.4,4,0C511.7,575.8,510.3,574.5,509,574z"/>
	<path class="st2" d="M416,520c0.6-1.3,1.6-2,3-2C418.6,519.5,418.7,521.8,416,520z"/>
	<path class="st0" d="M674.9,501c0.2-1.8,1.2-2.8,3-3C677.8,499.9,676.8,500.9,674.9,501z"/>
	<path class="st1" d="M334.2,647.9c1.8,0.2,2.8,1.2,2.9,3.1C335.1,650.8,334.1,649.9,334.2,647.9z"/>
	<path class="st2" d="M399.1,524c0.7-1.2,1.9-1,3-1C401.6,525.1,400.7,525.6,399.1,524z"/>
	<path class="st2" d="M407,522c0.7-1.2,1.9-1,3-1C409.6,523.1,408.7,523.6,407,522z"/>
	<path class="st2" d="M442,549c0.7,0,1.3,0,2,0c0,0,0,0,0,0c0,0.7,0,1.3,0,2l0,0C442.7,551,442.1,550.3,442,549z"/>
	<path class="st0" d="M549.9,564c0.1-1.2,0.8-1.9,2.1-1.9C551.9,563.4,551.2,564,549.9,564z"/>
	<path class="st2" d="M341.1,509c0.8,0,1.6,0.2,2,1C341.5,511.5,341.3,510.3,341.1,509z"/>
	<path class="st0" d="M664.8,509c0.2-1.2,0.8-1.9,2.1-1.9C666.9,508.4,666.2,509,664.8,509z"/>
	<path class="st0" d="M667.8,507c0.2-1.2,0.8-1.9,2.1-1.9C669.9,506.4,669.2,507,667.8,507z"/>
	<path class="st0" d="M651.9,517c0.1-1.2,0.8-1.9,2.1-1.9C653.9,516.4,653.2,517,651.9,517z"/>
	<path class="st2" d="M466,208.1c-2.6,6.5-7.9,11.1-11.4,17.1c-3.4,5.9-6.7,11.7-8.9,18.1c-1.5,4.1-3.6,8.1-5.6,12
		c-0.7,1.3-2.3,2.4-3.8,1.2c-5.7-4.8-13.2-3.7-19.6-6.3c-0.9-0.4-2-0.2-2.6-1.1c0.8-1.5,2.1-2.6,3.6-1.6c5.4,3.8,12.5,1.6,18,5.1
		c1.8,1.1,3.7-0.2,4.4-2.6c2.4-8.6,5.7-16.9,11-24.1c2.7-3.6,3.3-8.8,7.9-11c0.8-0.4,1-1.2,1-2.1C460.1,208.9,462.5,207.9,466,208.1
		z"/>
	<path class="st2" d="M392.1,247.1c-5.1,1.2-10.2,2.3-15.2,3.5c-12,2.9-22.9,7.7-31.7,16.8c-1.1,1.2-2.1,2.6-4,2.7
		c-0.3-2.5,0.7-4.2,2.6-6c8.8-8.6,20.4-11.8,31.3-16.1c4.6-1.8,10-2.9,15.3-2.8C391.6,245.3,391.9,246.1,392.1,247.1z"/>
	<path class="st2" d="M334.2,383.8c2.7,1.2,3.7,4.1,5.9,5.8c1.4,1.1,0.7,2.5-0.5,3.3c-7.3,5.2-10.8,13.5-16.5,20
		c-2.2-1.2-3-3.7-1.2-4.8c5-3,5.7-9.8,11-12.3c3.8-1.8,3.8-4.5,1.8-7.7C333.9,386.8,334.1,385.3,334.2,383.8z"/>
	<path class="st2" d="M502,182.1c-1.9,3.6-6.2,2.4-9,4.5c-4.4,3.4-10,4.8-13.3,9.8c-1,1.6-3.5,2.4-5.7,2.7
		c4.8-7.9,12.2-12.6,20.6-15.6C496.8,182.8,499,179.2,502,182.1z"/>
	<path class="st2" d="M317,320.1c-1.4,7.7,0.2,15.3,0.1,23c-5.4-1.5-2.7-6.4-3.7-9.6c-0.8-2.5,0.2-5.7-0.2-8.6
		C312.8,322.2,314.3,320.5,317,320.1z"/>
	<path class="st2" d="M341.1,270.1c-4,5-8,10-12.1,14.9c-2.6-3.2,1.1-4.7,2.1-6.7C333.2,274.3,335.5,270,341.1,270.1z"/>
	<path class="st2" d="M321.1,359c0.9,4.8,5.3,8,5.9,13C320.7,369,318.5,364.2,321.1,359z"/>
	<path class="st2" d="M327.1,374.1c2.3,2.4,4.8,4.7,6.2,7.9C327.1,381.8,325.2,379.2,327.1,374.1z"/>
	<path class="st2" d="M474.1,199.2c-0.7,3.6-3.1,5.9-6.1,7.8C467.4,202.4,469.5,199.8,474.1,199.2z"/>
	<path class="st2" d="M325,294.1c-0.4,2.8-3.1,4.4-3.9,7c-1.7-0.8-2.4-2.1-1.5-3.9C320.6,294.8,322.6,294,325,294.1z"/>
	<path class="st2" d="M315,441c0.1,2.2-0.5,4.2-1.9,6C310,443.3,310.3,442.2,315,441z"/>
	<path class="st2" d="M317,432c0.1,2.2-0.5,4.2-1.9,6c-2-0.2-2.3-1.5-1.9-3.1C313.8,433.1,314.8,431.8,317,432z"/>
	<path class="st2" d="M319,312.1c0.1,2.2-0.5,4.2-1.9,6C312.8,314.5,316,313.3,319,312.1z"/>
	<path class="st2" d="M318.9,424c-0.4,2.1-0.4,4.2-1.8,6C312.9,426.6,316,425.3,318.9,424z"/>
	<path class="st2" d="M322.1,416.1c-1,1.7-2,3.3-3,5c-1.4-0.7-2.4-1.8-1.6-3.4C318.4,415.6,320.4,416.1,322.1,416.1z"/>
	<path class="st2" d="M317.1,348c1.5,1.3,0.8,3.5,1.9,5c-1.5-0.2-3.5,0.6-3.8-1.8C315,349.7,315.1,348.2,317.1,348z"/>
	<path class="st2" d="M320.9,304.1c-0.2,1.8-0.5,3.6-1.8,5c-1.3-0.6-2.3-1.5-1.8-3.1C317.8,304.2,319.4,304.1,320.9,304.1z"/>
	<path class="st2" d="M328.2,288.1c-0.3,1.9-2,2.7-3.1,4c-1-0.5-2.2-1.2-1.6-2.5C324.5,287.5,326.5,288.2,328.2,288.1z"/>
	<path class="st2" d="M411,248.9c-2.1-0.4-4.3-0.4-6-1.8C407.7,245.5,410,245.2,411,248.9z"/>
	<path class="st2" d="M402,246.9c-2,0.1-4,0.1-6,0.2C398,244,400,244.2,402,246.9z"/>
	<path class="st0" d="M611,289.1c-3.4-0.6-3.8-3.3-4-6c-1-14.1-3-28-6.8-41.6c-0.7-2.5-3.2-4.5-2-7.4c4.7,3.6,4.3,9.3,5.7,14.1
		c3.4,11.5,3.8,23.5,5,35.4C609.1,285.7,611,287,611,289.1z"/>
	<path class="st0" d="M654,277.9c-10.9-1.7-21.5,0-31.8,3.6c-2.4,0.8-4.3,2.4-5.3,4.9c-0.7,1.6-1,4.2-4,2.7
		c4.9-10.4,14.4-12.1,24.4-13.2c3.4-0.4,6.8-1.1,10.3-0.9C650.1,275.3,652.7,275.1,654,277.9z"/>
	<path class="st0" d="M700.8,313.2c-4.2-1.3-3.6-4.9-4.1-8.1C700.1,306.8,699.3,310.6,700.8,313.2z"/>
	<path class="st0" d="M693.9,303c-2.6-2.1-4.1-4.8-5.2-7.9C692.4,296.5,693.5,299.5,693.9,303z"/>
	<path class="st0" d="M678.9,287.9c-2.7-0.2-4-2.6-6-4C677.1,282.1,677.7,285.6,678.9,287.9z"/>
	<path class="st0" d="M685.9,292.2c-2.1-1.1-5.5-0.5-6-4.1C682.1,289.1,685.6,288.3,685.9,292.2z"/>
	<path class="st0" d="M597.9,231.3c-3.6-0.8-2.8-3.7-2.8-6.2C598.2,226.2,596.9,229.2,597.9,231.3z"/>
	<path class="st0" d="M662,279.9c-2.3,0.2-4.3-0.4-6-1.9C658.7,276.2,660.6,277.1,662,279.9z"/>
	<path class="st0" d="M592.9,221.2c-2.9-1-3.2-3.7-3.9-6.1C592,216,592.3,218.7,592.9,221.2z"/>
	<path class="st0" d="M703.9,321.1c-3.1-0.8-1.5-3.3-1.9-5.1C705.9,316.5,704.2,319.1,703.9,321.1z"/>
	<path class="st0" d="M669.9,282.2c-1.7-0.6-3.6-0.8-4.9-2.1C667.6,278.3,669.4,278.9,669.9,282.2z"/>
	<path class="st0" d="M575.9,198.2c-1.8-0.5-3.6-0.8-4-3.1C574.1,195,575.9,195.5,575.9,198.2z"/>
	<path class="st0" d="M584.9,208.2c-1.7-0.5-3.7-0.7-3.9-3.1C582.8,205.5,584.8,205.7,584.9,208.2z"/>
	<path class="st0" d="M579.9,202.2c-1.7-0.3-2.8-1.3-3-3.1C578.9,199.2,579.9,200.2,579.9,202.2z"/>
	<path class="st2" d="M620.7,378.4c-1.1,3,0.3,4.8,0.4,6.8c0.2,5.3,0.6,10.5-1.5,15.5c-0.6,1.3-0.3,2.5,0.1,3.9
		c0.9,2.8,0.3,5.7-0.8,8.3c-5.2,12-10.3,24.2-18.9,34.2c-4.5,5.2-9.5,10.3-14.9,14.9c-5.6,4.7-11.6,8.6-17.7,12.2
		c-13.3,7.9-28.2,11.7-43.4,13.7c-9.6,1.3-19.4,2.4-29-0.7c-2.7-0.8-5,1.3-7.8,0.4c-8-2.4-15.6-5.8-23.3-9c-5.3-2.2-10.3-4.8-15.1-8
		c-11.4-7.7-21.6-16.4-29.9-27.7c-10.2-14-16.7-29.5-18.2-46.6c-0.6-6.6-2.6-13.3-0.2-20.4c1.3-3.7-0.3-8.7,1.2-13
		c5.2-14.6,11.8-28.6,22.4-40.2c8.5-9.3,17.8-18.2,29.4-23.1c8.8-3.7,17.7-7.4,27.1-9.9c10.1-2.7,20.2-3.6,30.4-4.3
		c8.4-0.6,16.9,0.8,25.4,2.7c13.8,3.2,26,9.3,38.2,16.5c17.3,10.3,28.2,25.7,37.3,42.6C617.1,357.1,619.2,368.2,620.7,378.4z"/>
	<path class="st0" d="M483,567.1c-2.4,1.8-4.2,0.4-6-1.2C479.2,565.1,481.2,565.8,483,567.1z"/>
	<path class="st0" d="M444,551c0-0.7,0-1.3,0-2c1.7,0.5,3.7,0.6,3.9,3C446.6,551.7,445.3,551.3,444,551z"/>
	<path class="st0" d="M453,555c-1.5-0.2-3.6,0.6-4-1.9C450.7,552.9,452.2,553.1,453,555z"/>
	<path class="st0" d="M457.1,557.9c-1.5,0.1-2.9,0.1-3.1-1.9C455.5,556,456.9,556,457.1,557.9z"/>
	<path class="st5" d="M570.5,685.8c-5.5-0.8-9.7,2.1-14.4,2.6c-7.2,0.8-14.4,2.2-21.6,3.3c-1.5,0.2-3.3-0.1-3.9-1.6
		c-0.7-1.7,1.3-1.9,2.2-2.8c1.2-1,2.6-1.3,4.1-1.7c10.6-2.6,21.1-5.2,31.7-7.8c9.6-2.4,19.4-4.5,28.9-7.1c2.9-0.8,5.9,1,8.7-0.7
		c0.5-0.3,1.3,0.2,1.5,1c0.2,0.9-0.2,1.6-0.8,2.2c-2.1,1.7-4.6,2.4-7.2,3.2c-8.8,2.8-17.7,5.7-26.5,8.5
		C572.1,685.4,571,685.7,570.5,685.8z"/>
	<path class="st5" d="M402.9,657.4c-0.9,2.4-2.8,1.6-4.3,0.7c-5-3-9.9-6.4-15-9.3c-10.1-5.7-18.5-13.5-26.3-22
		c-1-1.2-3.2-2.4-1.7-4.1c1.3-1.5,3.3-0.8,4.9,0.4c13.3,9.6,27,18.7,39.4,29.5C401.4,653.8,402.3,655.3,402.9,657.4z"/>
</g>
<g>
	<path class="st6" d="M496.8,658.8c8.9-5.3,17-10.2,25.6-14.1c21.3-9.6,43.5-15.5,66.8-17.8c15.1-1.5,30.1-2.4,45.3,0
		c12.8,2,25.2,5.5,35.3,13.8c11.7,9.6,15.5,22.8,6.4,38.4c-7.4,12.8-18.9,21.5-31.5,28.4c-28.3,15.5-58.9,23.4-91.1,25.8
		c-13.7,1-27.3-0.3-40.9-0.7c-9.1-0.3-18.3-0.5-27.3-1.5c-3.5-0.4-5.1,1-5.5,4.7c-1.2,12.1-3.5,24-5.3,36
		c-1.6,10.8-2.9,21.8-4.9,32.5c-2.8,14.3-2.9,29.1-9.2,42.7c-6.2,13.2-17.9,17.9-29.1,10.5c-6.9-4.5-10-11.3-10.4-19.5
		c-0.5-9.9,1.4-19.6,2.4-29.3c2.3-21.8,5-43.6,7.6-65.4c0.6-5.1,1.9-10.1,2.2-15.3c0.2-3.2-0.8-4.5-3.8-5.2
		c-19.7-4.4-37.7-13-54.7-23.6c-25.1-15.7-47-35.1-63.3-60c-6.4-9.7-11.1-20.4-11.6-32.6c-0.7-19.5,12.2-28.9,29-29.6
		c17.2-0.8,33.2,4.5,48.6,11.7c24.5,11.4,46.3,26.8,65.5,45.8c2.5,2.5,3.8,2.6,4.4-1.1c1.6-10.5,3.4-20.9,4.7-31.4
		c0.9-7.4,1.7-14.9,3.5-22.1c1.1-4.4,0.2-7.8-3.9-10.2c-13.1-7.8-24-17.9-32.8-30.3c-2.7-3.9-5.7-4.4-10.3-3.4
		c-39.2,9.3-82.4-10.5-99.7-45.4c-9.9-19.9-11.8-40.6-5.5-61.7c3.6-12.2,10.6-23,19.6-32.1c2.4-2.4,2.4-4.1,0.3-6.7
		c-15.5-18.8-21.8-40.7-20.1-64.7c1.5-21.2,9.3-40.1,23.3-56.2c19.4-22.2,43.8-34.3,73.7-34.2c10.2,0,20.2,1.8,29.7,5.8
		c3.5,1.5,5.1,0.7,6.7-3.1c11.6-27.7,29-50.6,56.7-63.8c29.4-14,57.9-11.1,83.9,8c19.8,14.5,31.9,34.9,38.9,58.4
		c2.3,7.9,4,15.8,5.1,23.9c0.5,3.8,2.2,4.7,5.8,3.5c30.4-10.4,61.9,3,79.3,27.1c15.8,21.9,20.6,45.9,16.4,72.4
		c-2.3,14.5-7.7,27.5-15.8,39.5c-2.1,3.2-1.5,5.8,0.1,8.8c5.7,10.8,8.7,22.3,8.1,34.6c-0.9,19-7.4,35.9-19.4,50.8
		c-18.4,22.7-42.4,34.9-70.9,38.9c-11.4,1.6-22.9,1.2-34.2-1.5c-4.6-1.1-6.8,0-8.3,4.8c-6.8,21.7-23,33.5-43.7,40.2
		c-9.1,2.9-18.5,4.2-28,3.6c-4.1-0.2-4.8,2.6-5,5.5c-0.3,7.7-2.1,15.1-3.1,22.7c-1.8,13.5-3.7,27-5.6,40.5
		C496.7,656.5,496.8,657.2,496.8,658.8z M705.1,350c0.4-5-0.5-11.5-2.2-18c-3.9-15.1-11.3-28.1-23.4-38c-9-7.4-19.6-11.6-31.2-11.8
		c-10.8-0.2-21.5,0.3-29.3,10.1c-4.3,5.5-12.4,3.4-14.5-3.4c-0.8-2.7-1.3-5.5-1.4-8.3c-0.2-5.8-0.2-11.6-1.2-17.4
		c-4.4-25.1-13.5-47.9-33.8-64.4c-19.8-16.1-42-19.4-65.6-9.4c-22.1,9.3-36.3,26.8-47.6,47.2c-4.1,7.3-6,15.5-10.5,22.6
		c-2.7,4.3-6.5,5.1-10.6,2.1c-1.9-1.4-3.6-2.9-5.9-3.7c-27.8-9.1-53.8-5.8-76.7,12.8c-25.3,20.7-33.7,47.8-27.1,79.6
		c2.9,13.9,10.4,25.5,18.8,36.5c3.2,4.1,2.1,7.8-0.5,11.4c-2.2,2.9-4.8,5.5-7.1,8.4c-13.2,15.9-18.2,34.4-15.5,54.5
		c2.2,16.7,10.5,30.7,23.7,41.5c16.5,13.5,35.4,18.5,56.4,16c7.1-0.8,13.8-3.6,20.5-6.2c7.1-2.6,14.2,2.7,12.2,9.4
		c-2,6.9,1.2,10.7,5.1,14.8c23.3,24.5,52,34.9,85.4,31.7c22.7-2.2,42.4-15.6,47.2-41.1c1.5-8,7.4-11.3,15.3-9.1
		c3.5,1,7,2.6,10.6,2.9c21.2,2.2,41.5-0.4,60.4-11c25-14,43.6-42.6,38.2-73.1c-1.1-6.3-1.6-13.1-6.4-18.1c-5.5-5.8-6.1-10.4-1-16.5
		C699.7,387.5,705.3,370.7,705.1,350z M335.8,592c-18.5-0.1-23.6,7.5-17.9,22c5.4,13.6,14.2,24.9,24,35.3
		c15.4,16.3,33.1,29.8,52.6,40.9c12.3,7,25,12.9,39.2,15.5c12.5,2.3,15.1,6.5,14.3,18.7c0,0.3,0,0.7,0,1
		c-1.5,15.4-2.8,30.8-4.7,46.2c-2.5,20.6-6,41.2-8.1,61.9c-0.3,3.1,0.4,6,2.3,8.5c3.1,4.2,6.7,3.9,9.4-0.6c4-6.6,4.3-14.2,5.5-21.5
		c2.7-17.1,5.3-34.2,8.1-51.2c2.5-15.1,5-30.2,8.5-45.1c1.5-6.1,3.7-7.8,9.9-7.4c6,0.4,11.9,1.3,17.8,2c15.8,1.8,31.6,0.7,47.4,0.1
		c31.6-1.2,61.6-8.4,89.5-23.5c10.3-5.6,19.9-12.1,27-21.8c4.8-6.6,4.6-13.6-1.4-19.2c-6.1-5.6-13.8-8.1-21.7-9.5
		c-14.7-2.6-29.4-3-44.3-1.3c-31.8,3.6-62.1,11.6-89,29.9c-4,2.7-8,5.5-12.2,7.7c-7.6,3.9-13.1,0.1-12.3-8.4
		c1.3-13.2,2.8-26.4,4.6-39.5c1.6-12,3.7-24,5.6-36c0.4-2.5,0.8-4.9,1-7.4c0.2-1.7-0.2-3.4-2.2-4c-4.8-1.5-9.5-3-14.3-4.4
		c-2.1-0.6-3.2,0.3-3.4,2.4c-0.4,7.7-2.7,15.1-3.5,22.7c-1.6,15.2-4,30.2-6.7,45.3c-1,5.4-5.1,7.8-10.4,5.9
		c-5.5-1.9-10.2-5-14.1-9.2c-18.8-19.6-40.7-34.8-65.3-46.1C359.2,596.2,346.8,591.7,335.8,592z"/>
	<path class="st6" d="M512.7,494.1c-27,0.6-51.2-7.1-72-22.7c-33.2-25-49.4-58.4-43.3-100.5c2.4-16.7,9.6-31.7,20.2-45
		c9.5-12,20.6-22.5,34.4-29.1c29.1-13.9,59.3-19.7,91.2-10.6c19.9,5.6,37.9,15,52.6,29.5c17.5,17.3,28.6,38.4,30.6,63
		c3,36.8-11.1,66.8-39.6,90.2C566.7,485.3,537.2,495.1,512.7,494.1z M609.1,389.1c0.2-25.8-11.1-47.2-27.9-63.1
		c-20-18.9-44.5-27.6-71.7-27.6c-19.1,0-37.5,4.1-53.9,15.2c-11.6,7.9-22.3,16.8-29.6,28.5c-10.3,16.6-14.8,34.9-12.3,54.9
		c3.6,28.6,18.8,49.4,42.4,64.3c18.6,11.8,39.3,16.2,61.5,14.9c20.4-1.2,38.9-7.1,55.4-19C596,440.5,608.5,417.9,609.1,389.1z"/>
	<path class="st6" d="M608.4,667c2.6,1.1,7-0.5,7.9,3.4c1,3.9-2.3,6.1-5.4,7.4c-12.8,5.5-26.2,9.9-39.8,12.9
		c-11.5,2.5-23,5.1-34.9,5.7c-1.7,0.1-3.3,0.3-4.9-0.2c-2.5-0.8-4.8-2-4.9-5c-0.1-2.7,1.2-4.8,3.8-5.9c5.7-2.4,11.6-4,17.6-5.4
		c16.5-3.9,33-7.7,49.5-11.4C601,667.8,604.6,667.5,608.4,667z"/>
	<path class="st6" d="M359.5,618.9c4.3,0.4,7.7,4.3,11.6,7c10.6,7.4,21.2,14.9,31.2,23.2c2.2,1.9,3.9,4.1,5.3,6.6
		c2.2,4.2,1,6.6-3.7,7.3c-3.4,0.5-6.4-0.8-9-2.4c-13.6-8-27.3-16-37.9-28.1c-1.7-1.9-3.3-3.7-4-6.2
		C351.8,622.1,354.3,618.9,359.5,618.9z"/>
	<path class="st6" d="M499,349.1c0.7,10.6-2.6,20.1-10.5,27.7c-7.2,7-18.1,5.3-22.8-3.5c-6.5-12.3-6.1-33.8,10.1-44.6
		c6.8-4.5,15.1-3,19.7,3.8C498.9,337.5,499.3,343.1,499,349.1z M476.2,354.5c0,2.7-0.1,5.3,0,8c0.1,1.3,0.4,2.8,1.9,3.3
		c1.9,0.6,2.7-1.1,3.4-2.3c4.1-6.3,5.4-13.1,3.6-20.5c-0.3-1.3-0.3-2.8-1.8-3.3c-1.7-0.5-2.7,0.8-3.9,1.7
		C475.3,345.1,476.1,349.9,476.2,354.5z"/>
	<path class="st6" d="M558.3,358.3c-0.5,10.4-2.7,20.1-12.5,26.1c-6.7,4.2-13.5,3-18-3.4c-9.6-13.3-8-32.7,2.2-44.6
		c6.8-7.9,17.5-6.7,23.1,2.2C556.9,344.7,558,351.3,558.3,358.3z M544.9,358.8c0.2-3.2-0.6-6.1-1.5-8.9c-0.6-1.9-1.1-4.2-3.5-4.3
		c-2.5-0.1-2,2.7-2.8,4.1c-0.5,0.8-1,1.8-1.2,2.7c-1.3,5.6-2.8,11.3,0.3,16.9c1.4,2.6,3,3.1,4.8,0.4
		C543.2,366.4,545.2,363,544.9,358.8z"/>
	<path class="st6" d="M517.9,423.9c-0.4,2.6-0.4,6-3.8,6.7c-3.1,0.6-4.7-2.3-5.5-4.8c-1.4-4.3-2.3-8.7-3.4-13
		c-0.3-1.1-0.1-2.6-1.6-2.7c-1.4-0.1-1.8,1.3-2.2,2.4c-0.9,2.7-1.8,5.3-2.6,8c-0.6,1.9-0.9,3.9-2.4,5.4c-1.5,1.5-3.2,2.5-5.3,1.7
		c-2.1-0.9-3-2.7-2.6-4.9c1.8-10.2,4.5-20.1,10.6-28.7c4-5.6,9.5-5.2,13.3,0.6c1.6,2.4,2.3,5.1,3,7.9
		C517.2,409.4,516.7,416.7,517.9,423.9z"/>
	<path class="st6" d="M543.9,397.8c-0.4,3.9-1.2,7.3-2.7,10.5c-1,2.1-2.7,3.4-5.1,3.4c-2.5,0-3.1-2-4-3.9c-1.8-3.8-0.8-7.5,0.1-11.2
		c0.9-3.6,2.6-7,7-6.3C543.4,391,543.4,394.9,543.9,397.8z"/>
	<path class="st6" d="M539.1,427.1c-0.4,1.9-0.9,5.2-1.9,8.3c-0.7,2.3-2.5,4.2-5.2,3.9c-2.7-0.3-3.7-2.6-3.9-5
		c-0.2-3.3-0.5-6.6,0.3-9.9c0.8-3.1,1.3-6.6,5.7-6.1C538.3,418.8,539,422.1,539.1,427.1z"/>
	<path class="st6" d="M462,448.4c-0.1-2.7-0.4-5.4,0.8-7.9c1-2.1,2.5-3.5,5-3.4c2.3,0.2,3.6,1.6,4.2,3.7c1.3,4.8,0.3,9.6-1.2,14.1
		c-0.8,2.2-2.8,3.3-5.3,2.8c-2.3-0.5-3.3-2.2-3.5-4.3C461.9,451.7,462,450.1,462,448.4z"/>
	<path class="st6" d="M466.9,395.7c0.7-3.2,0.2-7.1,3.7-9.1c2-1.1,4.4-1,5.9,0.8c2.6,3,2.7,6.6,1.4,10.3c-0.2,0.6-0.4,1.3-0.6,1.9
		c-0.9,2.6-2.1,5.2-5.4,4.9c-3.3-0.2-4-3-4.5-5.7C467.2,397.8,467.1,396.8,466.9,395.7z"/>
	<path class="st6" d="M534.8,454.1c-0.7,3.2-0.8,6.4-2.3,9.3c-1.1,2.2-2.9,4-5.6,3.1c-2.7-0.9-3.9-3.2-3.5-5.9
		c0.5-3.3,1.2-6.5,2.2-9.7c0.7-2.2,1.9-4.6,4.7-4.4c2.7,0.2,3.1,2.7,3.7,4.8C534.5,452.2,534.7,453.2,534.8,454.1z"/>
	<path class="st6" d="M463,421.3c0.2-1.1,0.2-2.1,0.5-3.1c0.9-3.4,1.6-7.2,6.4-6.8c3.2,0.2,5.5,4.9,4.7,9.2
		c-0.1,0.8-0.4,1.6-0.7,2.4c-1,3.1-1.1,7.3-5.8,6.7C463.1,429.2,464,424.5,463,421.3z"/>
</g>
</svg>
