<svg t="1695220943427" class="icon" viewBox="0 0 1024 1024" version="1.1" xmlns="http://www.w3.org/2000/svg" p-id="11310" width="200" height="200"><path d="M903.2 371.6l-1.4-16c-10.4-101.8-72.6-191-163.6-236-142.4-70.2-309.6-70.2-452 0-91 45-153.2 134.2-163.6 236l-1.4 16c-5.4 53.6-6 107.6-1.4 161.2l1.4 18c2.4 29.4 4 46.4 7 62.6 15.4 88 61.4 167.6 129.6 224.8 12.4 10.6 26.2 20.2 50.4 37l12.4 8.8c32.2 22.4 51.4 36 71.6 45.6 75.6 36.8 164.6 36.8 240.4 0 20.2-9.6 39.6-23.2 71.6-45.6l12.4-8.6c24.2-16.8 38-26.6 50.4-37 68.2-57.2 114.2-136.8 129.6-224.8 3-16.2 4.4-33.2 7-62.6l1.4-18c4-53.8 3.6-107.8-1.8-161.4zM612.8 571.8c11.4 11.6 11.4 30.4 0 42-11.8 11.6-30.2 11.6-41.6 0L512 554l-59.4 59.6c-11.4 11.6-29.6 11.6-41.6 0-11.4-11.6-11.4-30.4 0-42l59.4-59.8-59.4-59.8c-11.4-11.6-11.4-30.4 0-42 11.8-11.6 30.2-11.6 41.6 0l59.4 60 59.4-59.6c11.4-11.6 29.6-11.6 41.6 0 11.4 11.6 11.4 30.4 0 42L553.6 512l59.2 59.8z" fill="#EB5053" p-id="11311"></path></svg>