<svg height="1128" node-id="1" sillyvg="true" template-height="1128" template-width="1200" version="1.1" viewBox="0 0 1200 1128" width="1200" xmlns="http://www.w3.org/2000/svg" xmlns:xlink="http://www.w3.org/1999/xlink"><defs node-id="41"></defs><g node-id="43"><path d="M 1132.44 397.55 L 1109.07 401.49 C 1099.68 368.05 1085.87 336.58 1067.67 307.09 C 1063.62 300.48 1064.28 295.21 1064.89 287.94 L 1077.72 285.00 C 1079.86 284.52 1081.62 285.13 1082.99 286.83 L 1096.59 303.42 L 1109.52 329.23 C 1109.79 329.78 1110.33 330.13 1110.94 330.16 C 1111.56 330.20 1112.15 329.91 1112.52 329.40 C 1146.70 278.11 1247.38 113.33 1087.87 140.42 C 1043.29 147.96 999.87 160.32 957.61 177.49 C 956.85 177.81 956.33 178.54 956.27 179.35 C 956.21 180.16 956.63 180.93 957.33 181.32 L 999.57 204.74 C 1006.12 211.88 1007.30 219.76 1003.12 228.39 C 980.22 224.50 959.11 215.75 939.79 202.13 C 911.75 189.55 882.61 180.30 852.38 174.38 L 844.05 172.99 L 755.25 157.73 C 751.29 156.44 747.85 156.03 744.93 156.51 C 714.96 151.63 685.56 150.65 656.74 153.57 C 639.86 154.72 623.18 157.29 606.67 161.28 C 596.91 163.65 590.47 160.47 587.36 151.74 C 588.17 143.82 592.34 138.73 599.85 136.47 L 644.91 128.37 C 649.91 127.48 650.46 125.41 646.58 122.16 C 609.17 91.02 511.04 11.87 464.15 28.52 C 414.64 46.17 438.84 173.33 452.16 213.90 C 452.82 215.86 453.90 216.12 455.38 214.68 L 472.30 198.08 C 482.52 191.75 495.95 177.60 506.88 191.03 C 509.88 198.10 508.34 203.89 502.28 208.40 C 455.58 243.15 422.82 288.11 403.98 343.27 C 388.33 370.25 380.54 399.37 380.62 430.63 L 358.64 430.86 C 363.74 361.29 386.91 299.26 428.13 244.76 C 430.01 242.28 430.61 239.05 429.74 236.04 C 413.42 181.49 378.56 13.93 467.98 0.72 C 533.86 -8.99 640.86 82.31 687.98 123.60 C 689.28 124.78 690.81 125.43 692.59 125.54 C 768.22 130.35 842.46 143.17 915.32 164.00 C 917.09 164.52 918.85 164.41 920.59 163.67 C 981.81 137.86 1054.52 113.00 1121.28 111.55 C 1214.58 109.56 1209.53 191.03 1184.06 253.19 C 1170.81 285.46 1151.20 319.85 1125.22 356.37 C 1124.08 358.00 1123.73 359.78 1124.17 361.70 L 1132.44 397.55 Z" fill="#678490" fill-rule="nonzero" group-id="1" id="路径" node-id="6" stroke="none" target-height="439.84998" target-width="888.74" target-x="358.64" target-y="-8.99"></path><path d="M 599.85 136.47 C 583.25 105.34 522.76 35.57 482.24 69.21 C 462.43 85.58 472.14 114.88 482.85 134.25 C 483.85 136.07 483.76 137.83 482.57 139.53 C 469.96 157.40 466.53 176.92 472.30 198.08 L 455.38 214.68 C 453.90 216.12 452.82 215.86 452.16 213.90 C 438.84 173.33 414.64 46.17 464.15 28.52 C 511.04 11.87 609.17 91.02 646.58 122.16 C 650.46 125.41 649.91 127.48 644.91 128.37 L 599.85 136.47 Z" fill="#b0b9c6" fill-rule="nonzero" group-id="1" id="路径" node-id="7" stroke="none" target-height="204.25" target-width="235.82" target-x="414.64" target-y="11.87"></path><path d="M 599.85 136.47 C 592.34 138.73 588.17 143.82 587.36 151.74 L 506.88 191.03 C 495.95 177.60 482.52 191.75 472.30 198.08 C 466.53 176.92 469.96 157.40 482.57 139.53 C 483.76 137.83 483.85 136.07 482.85 134.25 C 472.14 114.88 462.43 85.58 482.24 69.21 C 522.76 35.57 583.25 105.34 599.85 136.47 Z" fill="#ffffff" fill-rule="nonzero" group-id="1" id="路径" node-id="8" stroke="none" target-height="162.51001" target-width="137.41998" target-x="462.43" target-y="35.57"></path><path d="M 1096.59 303.42 C 1114.24 291.44 1111.68 264.18 1108.80 245.76 C 1108.50 243.80 1109.09 242.15 1110.57 240.82 C 1157.92 198.25 1131.61 147.91 1070.83 165.61 C 1044.38 173.31 1020.62 186.35 999.57 204.74 L 957.33 181.32 C 956.63 180.93 956.21 180.16 956.27 179.35 C 956.33 178.54 956.85 177.81 957.61 177.49 C 999.87 160.32 1043.29 147.96 1087.87 140.42 C 1247.38 113.33 1146.70 278.11 1112.52 329.40 C 1112.15 329.91 1111.56 330.20 1110.94 330.16 C 1110.33 330.13 1109.79 329.78 1109.52 329.23 L 1096.59 303.42 Z" fill="#b0b9c6" fill-rule="nonzero" group-id="1" id="路径" node-id="9" stroke="none" target-height="216.87001" target-width="291.16998" target-x="956.21" target-y="113.33"></path><path d="M 587.36 151.74 C 590.47 160.47 596.91 163.65 606.67 161.28 C 623.18 157.29 639.86 154.72 656.74 153.57 C 653.57 186.43 649.69 240.65 677.38 265.02 C 679.01 266.46 680.92 267.14 683.10 267.07 C 722.78 265.68 743.32 183.32 744.93 156.51 C 747.85 156.03 751.29 156.44 755.25 157.73 C 747.98 203.02 741.93 245.65 758.36 289.83 C 768.57 317.24 794.71 306.25 806.37 287.61 C 827.57 253.60 840.13 215.40 844.05 172.99 L 852.38 174.38 C 848.16 207.57 847.50 233.53 850.38 252.25 C 861.32 323.40 901.39 305.03 921.76 255.80 C 928.93 238.34 934.95 220.45 939.79 202.13 C 959.11 215.75 980.22 224.50 1003.12 228.39 C 1028.21 242.63 1048.80 262.48 1064.89 287.94 C 1064.28 295.21 1063.62 300.48 1067.67 307.09 C 1085.87 336.58 1099.68 368.05 1109.07 401.49 C 1069.22 423.70 1030.13 448.08 991.80 474.65 C 989.62 476.16 988.41 475.61 988.19 472.98 C 975.32 325.90 782.11 298.26 727.89 434.46 C 727.19 436.31 725.97 436.74 724.23 435.74 C 702.28 422.86 678.60 418.15 653.18 421.59 C 650.96 421.88 649.80 420.90 649.69 418.64 C 643.42 287.55 485.57 236.54 403.98 343.27 C 422.82 288.11 455.58 243.15 502.28 208.40 C 508.34 203.89 509.88 198.10 506.88 191.03 L 587.36 151.74 Z" fill="#b0b9c6" fill-rule="nonzero" group-id="1" id="路径" node-id="10" stroke="none" target-height="324.41998" target-width="705.08997" target-x="403.98" target-y="151.74"></path><path d="M 744.93 156.51 C 743.32 183.32 722.78 265.68 683.10 267.07 C 680.92 267.14 679.01 266.46 677.38 265.02 C 649.69 240.65 653.57 186.43 656.74 153.57 C 685.56 150.65 714.96 151.63 744.93 156.51 Z" fill="#91a1b5" fill-rule="nonzero" group-id="1" id="路径" node-id="11" stroke="none" target-height="116.49002" target-width="95.23999" target-x="649.69" target-y="150.65"></path><path d="M 755.25 157.73 L 844.05 172.99 C 840.13 215.40 827.57 253.60 806.37 287.61 C 794.71 306.25 768.57 317.24 758.36 289.83 C 741.93 245.65 747.98 203.02 755.25 157.73 Z" fill="#91a1b5" fill-rule="nonzero" group-id="1" id="路径" node-id="12" stroke="none" target-height="159.51" target-width="102.119995" target-x="741.93" target-y="157.73"></path><path d="M 1096.59 303.42 L 1082.99 286.83 C 1081.62 285.13 1079.86 284.52 1077.72 285.00 L 1064.89 287.94 C 1048.80 262.48 1028.21 242.63 1003.12 228.39 C 1007.30 219.76 1006.12 211.88 999.57 204.74 C 1020.62 186.35 1044.38 173.31 1070.83 165.61 C 1131.61 147.91 1157.92 198.25 1110.57 240.82 C 1109.09 242.15 1108.50 243.80 1108.80 245.76 C 1111.68 264.18 1114.24 291.44 1096.59 303.42 Z" fill="#ffffff" fill-rule="nonzero" group-id="1" id="路径" node-id="13" stroke="none" target-height="155.51001" target-width="158.35004" target-x="999.57" target-y="147.91"></path><path d="M 852.38 174.38 C 882.61 180.30 911.75 189.55 939.79 202.13 C 934.95 220.45 928.93 238.34 921.76 255.80 C 901.39 305.03 861.32 323.40 850.38 252.25 C 847.50 233.53 848.16 207.57 852.38 174.38 Z" fill="#91a1b5" fill-rule="nonzero" group-id="1" id="路径" node-id="14" stroke="none" target-height="149.01999" target-width="92.28998" target-x="847.5" target-y="174.38"></path><path d="M 1109.07 401.49 L 1132.44 397.55 C 1150.15 404.99 1175.18 413.43 1177.67 435.68 C 1177.90 437.76 1177.14 439.38 1175.40 440.57 L 1167.24 446.01 C 1165.20 447.34 1163.22 447.27 1161.30 445.79 L 1141.43 430.47 C 1131.44 424.18 1121.36 423.70 1111.18 429.02 L 988.14 507.23 C 986.55 508.26 985.49 509.69 984.97 511.50 C 974.72 547.02 953.95 575.25 922.64 596.19 L 889.62 610.51 C 796.43 628.66 713.63 564.06 721.01 467.32 C 721.12 465.54 720.47 464.14 719.06 463.10 C 698.46 447.97 675.63 443.25 650.58 448.95 C 648.54 449.39 647.19 450.61 646.52 452.61 C 638.12 477.55 625.27 499.44 607.95 518.27 L 590.13 497.68 C 627.65 458.61 633.81 414.50 608.62 365.36 C 582.86 324.00 545.14 306.64 495.45 313.30 C 435.36 329.25 406.33 368.36 408.37 430.63 C 399.19 432.59 389.94 432.59 380.62 430.63 C 380.54 399.37 388.33 370.25 403.98 343.27 C 485.57 236.54 643.42 287.55 649.69 418.64 C 649.80 420.90 650.96 421.88 653.18 421.59 C 678.60 418.15 702.28 422.86 724.23 435.74 C 725.97 436.74 727.19 436.31 727.89 434.46 C 782.11 298.26 975.32 325.90 988.19 472.98 C 988.41 475.61 989.62 476.16 991.80 474.65 C 1030.13 448.08 1069.22 423.70 1109.07 401.49 Z M 838.50 372.80 C 769.85 384.29 729.72 451.06 753.86 517.10 C 772.66 564.84 808.27 588.28 860.70 587.43 C 941.02 581.32 985.97 499.40 948.34 428.08 C 924.11 386.38 887.49 367.95 838.50 372.80 Z" fill="#605c5d" fill-rule="nonzero" group-id="1" id="形状" node-id="15" stroke="none" target-height="392.12" target-width="797.36" target-x="380.54" target-y="236.54"></path><path d="M 608.62 365.36 C 603.58 375.13 600.61 385.27 599.68 395.78 C 597.85 417.09 593.96 429.02 577.81 440.35 C 576.52 441.25 574.88 441.51 573.36 441.06 C 571.84 440.60 570.60 439.49 569.99 438.01 C 556.22 404.49 520.42 405.32 502.50 435.02 L 469.42 427.86 C 518.54 411.26 512.15 350.99 495.45 313.30 C 545.14 306.64 582.86 324.00 608.62 365.36 Z" fill="#ddfcfd" fill-rule="nonzero" group-id="1" id="路径" node-id="16" stroke="none" target-height="134.87" target-width="139.19998" target-x="469.42" target-y="306.64"></path><path d="M 495.45 313.30 C 512.15 350.99 518.54 411.26 469.42 427.86 C 449.18 431.19 428.83 432.11 408.37 430.63 C 406.33 368.36 435.36 329.25 495.45 313.30 Z" fill="#66e0e9" fill-rule="nonzero" group-id="1" id="路径" node-id="17" stroke="none" target-height="118.81" target-width="112.20999" target-x="406.33" target-y="313.3"></path><path d="M 608.62 365.36 C 633.81 414.50 627.65 458.61 590.13 497.68 C 564.23 472.22 535.02 451.34 502.50 435.02 C 520.42 405.32 556.22 404.49 569.99 438.01 C 570.60 439.49 571.84 440.60 573.36 441.06 C 574.88 441.51 576.52 441.25 577.81 440.35 C 593.96 429.02 597.85 417.09 599.68 395.78 C 600.61 385.27 603.58 375.13 608.62 365.36 Z" fill="#66e0e9" fill-rule="nonzero" group-id="1" id="路径" node-id="18" stroke="none" target-height="132.32" target-width="131.31" target-x="502.5" target-y="365.36"></path><path d="M 948.34 428.08 L 944.35 432.52 C 943.27 433.70 942.87 435.05 943.12 436.57 C 946.90 461.58 939.94 482.53 922.26 499.40 C 920.74 500.84 918.94 501.73 916.87 502.06 C 865.14 510.00 841.22 533.53 860.70 587.43 C 808.27 588.28 772.66 564.84 753.86 517.10 C 758.97 513.48 764.82 512.05 771.40 512.83 C 773.33 513.05 774.44 514.13 774.73 516.05 C 783.50 575.88 864.70 550.41 846.05 486.80 C 844.66 482.08 840.72 478.42 838.73 473.65 C 837.95 471.80 838.04 470.00 839.00 468.26 C 856.43 437.57 848.66 403.55 838.50 372.80 C 887.49 367.95 924.11 386.38 948.34 428.08 Z" fill="#ddfcfd" fill-rule="nonzero" group-id="1" id="路径" node-id="19" stroke="none" target-height="220.33002" target-width="194.48004" target-x="753.86" target-y="367.95"></path><path d="M 838.50 372.80 C 848.66 403.55 856.43 437.57 839.00 468.26 C 838.04 470.00 837.95 471.80 838.73 473.65 C 840.72 478.42 844.66 482.08 846.05 486.80 C 864.70 550.41 783.50 575.88 774.73 516.05 C 774.44 514.13 773.33 513.05 771.40 512.83 C 764.82 512.05 758.97 513.48 753.86 517.10 C 729.72 451.06 769.85 384.29 838.50 372.80 Z" fill="#66e0e9" fill-rule="nonzero" group-id="1" id="路径" node-id="20" stroke="none" target-height="203.08002" target-width="134.98004" target-x="729.72" target-y="372.8"></path><path d="M 1141.43 430.47 C 1140.77 441.97 1140.49 453.46 1140.60 464.93 C 1141.21 528.82 1120.67 606.35 1095.59 657.47 C 1065.62 718.63 1018.20 759.98 953.34 781.51 C 952.65 781.75 952.14 782.34 952.02 783.05 C 951.89 783.77 952.16 784.50 952.73 784.95 C 1010.41 832.21 1048.21 890.61 1066.12 960.17 C 1083.65 1028.22 1075.11 1088.16 1007.78 1119.41 C 998.51 1123.74 991.30 1120.41 986.75 1112.14 C 987.23 1104.59 990.17 1099.56 995.57 1097.04 C 1056.24 1068.90 1056.68 1008.90 1038.59 953.79 C 1016.68 886.89 976.91 833.33 919.26 793.11 C 917.89 792.15 916.35 791.67 914.65 791.67 L 837.39 792.61 C 835.14 792.65 833.12 791.99 831.34 790.62 C 824.72 785.40 823.09 779.48 826.46 772.86 C 828.65 768.59 833.13 766.01 837.89 766.25 C 873.36 768.03 911.04 767.14 944.01 757.04 C 1041.86 726.90 1074.61 654.47 1100.80 562.67 C 1113.90 516.86 1117.36 472.31 1111.18 429.02 C 1121.36 423.70 1131.44 424.18 1141.43 430.47 Z" fill="#678490" fill-rule="nonzero" group-id="1" id="路径" node-id="21" stroke="none" target-height="700.04" target-width="318.34003" target-x="823.09" target-y="423.7"></path><path d="M 469.42 427.86 L 502.50 435.02 C 535.02 451.34 564.23 472.22 590.13 497.68 L 607.95 518.27 L 619.49 536.31 L 652.80 608.46 L 665.28 654.25 L 667.84 670.68 C 658.96 673.12 650.09 673.19 641.25 670.90 C 626.27 584.21 582.20 501.45 498.67 464.54 C 489.42 460.44 478.82 458.38 466.87 458.38 C 335.10 458.01 203.40 457.68 71.75 457.38 C 71.21 457.41 70.74 457.76 70.57 458.26 C 70.39 458.75 70.55 459.29 70.97 459.60 C 141.20 512.55 181.51 582.91 191.91 670.68 L 169.71 672.06 C 149.23 577.71 108.33 497.18 14.03 459.38 C 4.43 455.50 -3.95 449.00 1.98 438.24 C 2.91 436.53 4.33 435.46 6.26 435.02 C 15.92 432.76 23.69 431.67 29.57 431.74 C 139.28 433.19 248.97 432.89 358.64 430.86 L 380.62 430.63 C 389.94 432.59 399.19 432.59 408.37 430.63 C 428.83 432.11 449.18 431.19 469.42 427.86 Z" fill="#e3e3e3" fill-rule="nonzero" group-id="1" id="路径" node-id="22" stroke="none" target-height="245.33002" target-width="671.79004" target-x="-3.95" target-y="427.86"></path><path d="M 948.34 428.08 C 985.97 499.40 941.02 581.32 860.70 587.43 C 841.22 533.53 865.14 510.00 916.87 502.06 C 918.94 501.73 920.74 500.84 922.26 499.40 C 939.94 482.53 946.90 461.58 943.12 436.57 C 942.87 435.05 943.27 433.70 944.35 432.52 L 948.34 428.08 Z" fill="#66e0e9" fill-rule="nonzero" group-id="1" id="路径" node-id="23" stroke="none" target-height="159.35" target-width="144.75" target-x="841.22" target-y="428.08"></path><path d="M 1111.18 429.02 C 1117.36 472.31 1113.90 516.86 1100.80 562.67 C 1074.61 654.47 1041.86 726.90 944.01 757.04 C 911.04 767.14 873.36 768.03 837.89 766.25 C 833.13 766.01 828.65 768.59 826.46 772.86 C 823.09 779.48 824.72 785.40 831.34 790.62 C 833.12 791.99 835.14 792.65 837.39 792.61 L 914.65 791.67 C 916.35 791.67 917.89 792.15 919.26 793.11 C 976.91 833.33 1016.68 886.89 1038.59 953.79 C 1056.68 1008.90 1056.24 1068.90 995.57 1097.04 C 990.17 1099.56 987.23 1104.59 986.75 1112.14 C 954.59 1124.27 921.37 1128.82 887.07 1125.79 C 890.14 1095.26 891.01 1064.59 889.68 1033.77 C 888.95 1016.23 882.07 1007.24 869.81 996.30 C 866.66 993.53 866.75 990.87 870.08 988.31 C 880.15 980.69 888.57 971.55 895.34 960.89 C 896.37 959.27 896.47 957.56 895.62 955.79 C 892.88 950.05 890.36 945.87 888.07 943.25 C 859.35 910.43 831.27 877.07 803.82 843.18 C 911.49 811.82 967.16 939.53 988.80 1019.34 C 989.62 1022.38 991.75 1024.91 994.60 1026.25 C 997.46 1027.58 1000.76 1027.59 1003.62 1026.28 C 1016.00 1020.61 1011.95 1013.51 1009.56 1003.58 C 987.58 912.22 904.44 766.03 788.55 825.14 L 748.54 780.51 C 753.03 738.17 737.27 691.27 695.59 673.45 C 741.65 649.03 770.51 573.66 707.74 549.63 C 700.19 546.74 692.70 543.56 685.26 540.08 C 683.38 539.19 682.67 537.75 683.16 535.75 L 685.82 524.60 C 686.37 522.34 687.80 521.32 690.09 521.54 C 699.94 522.51 705.56 518.70 706.97 510.11 C 707.86 504.47 704.20 499.12 698.64 497.96 C 685.54 495.18 644.75 480.92 644.30 504.45 C 644.27 506.56 645.10 508.22 646.80 509.45 L 658.73 518.21 C 660.70 519.62 661.34 521.49 660.68 523.82 L 658.01 533.09 C 657.42 535.12 656.05 536.14 653.91 536.14 L 619.49 536.31 L 607.95 518.27 C 625.27 499.44 638.12 477.55 646.52 452.61 C 647.19 450.61 648.54 449.39 650.58 448.95 C 675.63 443.25 698.46 447.97 719.06 463.10 C 720.47 464.14 721.12 465.54 721.01 467.32 C 713.63 564.06 796.43 628.66 889.62 610.51 C 905.94 617.77 923.07 621.41 941.02 621.45 C 954.28 621.50 956.61 607.29 945.62 601.36 C 938.89 597.73 931.23 596.01 922.64 596.19 C 953.95 575.25 974.72 547.02 984.97 511.50 C 985.49 509.69 986.55 508.26 988.14 507.23 L 1111.18 429.02 Z M 928.63 675.88 C 930.22 673.13 930.67 669.86 929.85 666.78 C 929.04 663.71 927.04 661.08 924.29 659.48 L 874.50 630.51 C 868.78 627.18 861.44 629.11 858.11 634.84 L 857.72 635.51 C 856.12 638.26 855.68 641.53 856.49 644.60 C 857.30 647.67 859.30 650.30 862.05 651.90 L 911.84 680.88 C 917.57 684.21 924.90 682.27 928.23 676.55 L 928.63 675.88 Z" fill="#b0b9c6" fill-rule="nonzero" group-id="1" id="形状" node-id="24" stroke="none" target-height="699.7999" target-width="509.40997" target-x="607.95" target-y="429.02"></path><path d="M 641.25 670.90 C 492.58 673.05 343.89 673.16 195.19 671.23 C 193.91 671.23 193.19 670.79 191.91 670.68 C 181.51 582.91 141.20 512.55 70.97 459.60 C 70.55 459.29 70.39 458.75 70.57 458.26 C 70.74 457.76 71.21 457.41 71.75 457.38 C 203.40 457.68 335.10 458.01 466.87 458.38 C 478.82 458.38 489.42 460.44 498.67 464.54 C 582.20 501.45 626.27 584.21 641.25 670.90 Z M 514.99 513.94 C 514.99 507.17 509.49 501.68 502.72 501.68 L 196.35 501.68 C 189.58 501.68 184.09 507.17 184.09 513.94 L 184.09 514.27 C 184.09 521.05 189.58 526.54 196.35 526.54 L 502.72 526.54 C 505.97 526.54 509.09 525.25 511.39 522.95 C 513.69 520.65 514.99 517.53 514.99 514.27 L 514.99 513.94 Z M 558.05 571.00 C 558.05 564.87 553.08 559.90 546.95 559.90 L 237.48 559.90 C 231.35 559.90 226.38 564.87 226.38 571.00 L 226.38 573.77 C 226.38 579.90 231.35 584.87 237.48 584.87 L 546.95 584.87 C 553.08 584.87 558.05 579.90 558.05 573.77 L 558.05 571.00 Z" fill="#ffffff" fill-rule="nonzero" group-id="1" id="形状" node-id="25" stroke="none" target-height="215.77997" target-width="570.86" target-x="70.39" target-y="457.38"></path><path d="M 695.59 673.45 L 667.84 670.68 L 665.28 654.25 C 675.79 652.69 686.43 648.48 697.20 641.59 C 699.19 640.33 700.51 638.25 700.81 635.91 C 701.11 633.57 700.36 631.22 698.75 629.50 C 687.06 616.95 671.74 609.94 652.80 608.46 L 619.49 536.31 L 653.91 536.14 C 656.05 536.14 657.42 535.12 658.01 533.09 L 660.68 523.82 C 661.34 521.49 660.70 519.62 658.73 518.21 L 646.80 509.45 C 645.10 508.22 644.27 506.56 644.30 504.45 C 644.75 480.92 685.54 495.18 698.64 497.96 C 704.20 499.12 707.86 504.47 706.97 510.11 C 705.56 518.70 699.94 522.51 690.09 521.54 C 687.80 521.32 686.37 522.34 685.82 524.60 L 683.16 535.75 C 682.67 537.75 683.38 539.19 685.26 540.08 C 692.70 543.56 700.19 546.74 707.74 549.63 C 770.51 573.66 741.65 649.03 695.59 673.45 Z" fill="#678490" fill-rule="nonzero" group-id="1" id="路径" node-id="26" stroke="none" target-height="192.53" target-width="151.02002" target-x="619.49" target-y="480.92"></path><path d="M 186.30 501.68 L 512.78 501.68 C 514.00 501.68 514.99 502.66 514.99 503.89 L 514.99 524.33 C 514.99 525.55 514.00 526.54 512.78 526.54 L 186.30 526.54 C 185.07 526.54 184.09 525.55 184.09 524.33 L 184.09 503.89 C 184.09 502.66 185.07 501.68 186.30 501.68 Z" fill="#605c5d" fill-rule="nonzero" group-id="1" id="矩形" node-id="27" stroke="none" target-height="24.859985" target-width="330.9" target-x="184.09" target-y="501.68"></path><path d="M 228.38 559.90 L 556.05 559.90 C 557.16 559.90 558.05 560.79 558.05 561.90 L 558.05 582.87 C 558.05 583.98 557.16 584.87 556.05 584.87 L 228.38 584.87 C 227.27 584.87 226.38 583.98 226.38 582.87 L 226.38 561.90 C 226.38 560.79 227.27 559.90 228.38 559.90 Z" fill="#605c5d" fill-rule="nonzero" group-id="1" id="矩形" node-id="28" stroke="none" target-height="24.96997" target-width="331.66998" target-x="226.38" target-y="559.9"></path><path d="M 922.64 596.19 C 931.23 596.01 938.89 597.73 945.62 601.36 C 956.61 607.29 954.28 621.50 941.02 621.45 C 923.07 621.41 905.94 617.77 889.62 610.51 L 922.64 596.19 Z" fill="#91a1b5" fill-rule="nonzero" group-id="1" id="路径" node-id="29" stroke="none" target-height="25.48999" target-width="66.98999" target-x="889.62" target-y="596.01"></path><path d="M 652.80 608.46 C 671.74 609.94 687.06 616.95 698.75 629.50 C 700.36 631.22 701.11 633.57 700.81 635.91 C 700.51 638.25 699.19 640.33 697.20 641.59 C 686.43 648.48 675.79 652.69 665.28 654.25 L 652.80 608.46 Z" fill="#fd80a6" fill-rule="nonzero" group-id="1" id="路径" node-id="30" stroke="none" target-height="45.789978" target-width="48.309998" target-x="652.8" target-y="608.46"></path><g node-id="44"><path d="M 866.01 625.56 L 932.79 664.43 L 933.43 665.00 L 933.79 665.74 L 933.85 666.56 L 933.57 667.38 L 923.29 685.04 L 922.72 685.69 L 921.98 686.04 L 921.16 686.10 L 920.34 685.82 L 853.56 646.96 L 852.91 646.38 L 852.56 645.64 L 852.50 644.82 L 852.78 644.00 L 863.06 626.34 L 863.63 625.70 L 864.37 625.34 L 865.19 625.28 L 866.01 625.56 Z" fill="#91a1b5" fill-rule="nonzero" group-id="1,2" id="矩形" node-id="31" stroke="none" target-height="60.819946" target-width="81.349976" target-x="852.5" target-y="625.28"></path></g><path d="M 191.91 670.68 C 193.19 670.79 193.91 671.23 195.19 671.23 C 343.89 673.16 492.58 673.05 641.25 670.90 C 650.09 673.19 658.96 673.12 667.84 670.68 L 695.59 673.45 C 737.27 691.27 753.03 738.17 748.54 780.51 L 738.82 816.59 L 727.50 834.41 L 707.85 851.28 C 682.66 864.99 640.64 859.49 612.34 859.83 L 581.81 859.83 L 183.59 859.83 L 158.83 859.60 C 80.85 827.52 81.85 682.00 169.71 672.06 L 191.91 670.68 Z M 153.73 705.25 C 116.32 729.18 121.26 833.52 169.16 833.35 C 316.79 832.87 466.72 833.26 618.94 834.52 C 626.16 834.55 628.17 831.34 624.99 824.86 C 604.42 782.83 605.56 741.61 628.43 701.20 C 629.54 699.24 628.97 698.34 626.71 698.48 C 613.00 699.37 598.46 697.21 586.30 697.26 C 452.32 697.52 318.32 698.00 184.31 698.71 C 170.62 698.78 160.42 700.96 153.73 705.25 Z M 680.29 833.07 C 704.23 832.95 723.48 802.78 723.28 765.69 C 723.19 747.88 718.53 730.82 710.34 718.27 C 702.14 705.72 691.08 698.70 679.58 698.76 C 655.64 698.89 636.40 729.06 636.59 766.14 C 636.68 783.96 641.34 801.01 649.53 813.56 C 657.73 826.12 668.79 833.13 680.29 833.07 Z" fill="#ffcc6c" fill-rule="nonzero" group-id="1" id="形状" node-id="32" stroke="none" target-height="194.31" target-width="672.18005" target-x="80.85" target-y="670.68"></path><path d="M 169.16 833.35 C 121.26 833.52 116.32 729.18 153.73 705.25 C 160.42 700.96 170.62 698.78 184.31 698.71 C 318.32 698.00 452.32 697.52 586.30 697.26 C 598.46 697.21 613.00 699.37 626.71 698.48 C 628.97 698.34 629.54 699.24 628.43 701.20 C 605.56 741.61 604.42 782.83 624.99 824.86 C 628.17 831.34 626.16 834.55 618.94 834.52 C 466.72 833.26 316.79 832.87 169.16 833.35 Z" fill="#ffff9d" fill-rule="nonzero" group-id="1" id="路径" node-id="33" stroke="none" target-height="137.33997" target-width="513.22" target-x="116.32" target-y="697.21"></path><path d="M 680.29 833.07 L 676.72 832.86 L 673.26 832.23 L 669.89 831.19 L 666.57 829.72 L 663.44 827.91 L 660.41 825.75 L 657.47 823.20 L 654.62 820.25 L 651.22 816.01 L 648.06 811.20 L 645.16 805.76 L 642.72 800.10 L 640.63 793.98 L 638.91 787.36 L 637.67 780.63 L 636.89 773.57 L 636.59 766.14 L 636.82 758.72 L 637.52 751.65 L 638.69 744.91 L 640.34 738.27 L 642.36 732.13 L 644.75 726.44 L 647.59 720.98 L 650.69 716.13 L 654.05 711.85 L 656.88 708.87 L 659.79 706.29 L 662.79 704.10 L 665.90 702.26 L 669.20 700.75 L 672.57 699.67 L 676.02 699.01 L 679.58 698.76 L 683.15 698.98 L 686.61 699.60 L 689.99 700.64 L 693.30 702.11 L 696.43 703.92 L 699.46 706.09 L 702.40 708.63 L 705.25 711.59 L 708.66 715.83 L 711.81 720.64 L 714.71 726.07 L 717.15 731.73 L 719.24 737.86 L 720.96 744.48 L 722.20 751.20 L 722.98 758.27 L 723.28 765.69 L 723.06 773.12 L 722.35 780.19 L 721.18 786.93 L 719.53 793.57 L 717.51 799.71 L 715.13 805.40 L 712.28 810.86 L 709.18 815.71 L 705.82 819.98 L 703.00 822.97 L 700.08 825.54 L 697.08 827.74 L 693.97 829.58 L 690.67 831.08 L 687.30 832.16 L 683.85 832.82 L 680.29 833.07 Z" fill="#ffff9d" fill-rule="nonzero" group-id="1,3" id="椭圆形" node-id="34" stroke="none" target-height="134.31" target-width="86.69" target-x="636.59" target-y="698.76"></path><path d="M 748.54 780.51 L 788.55 825.14 C 792.03 832.43 797.12 838.44 803.82 843.18 C 831.27 877.07 859.35 910.43 888.07 943.25 C 890.36 945.87 892.88 950.05 895.62 955.79 C 896.47 957.56 896.37 959.27 895.34 960.89 C 888.57 971.55 880.15 980.69 870.08 988.31 C 866.75 990.87 866.66 993.53 869.81 996.30 C 882.07 1007.24 888.95 1016.23 889.68 1033.77 C 891.01 1064.59 890.14 1095.26 887.07 1125.79 C 881.07 1127.46 875.87 1128.29 871.47 1128.29 C 584.75 1126.96 353.14 1126.71 176.65 1127.57 C 165.07 1127.64 159.24 1122.40 159.17 1111.86 C 158.57 1027.72 158.46 943.63 158.83 859.60 L 183.59 859.83 L 183.97 1101.65 C 183.97 1102.05 184.32 1102.37 184.75 1102.37 L 569.99 1101.76 C 573.37 1101.74 576.61 1100.38 579.00 1097.98 C 581.38 1095.58 582.71 1092.32 582.70 1088.94 L 581.81 859.83 L 612.34 859.83 C 611.30 862.08 610.76 864.32 610.73 866.54 C 609.91 943.73 609.47 1020.89 609.39 1098.04 C 609.39 1100.26 610.52 1101.37 612.78 1101.37 L 858.26 1101.92 C 861.03 1101.92 863.28 1099.70 863.31 1096.93 L 863.81 1031.83 C 863.85 1029.94 863.24 1028.29 861.98 1026.89 L 707.85 851.28 L 727.50 834.41 L 847.16 970.55 C 848.68 972.25 850.27 972.35 851.94 970.83 L 863.37 960.67 C 865.37 958.90 865.50 956.99 863.76 954.96 L 747.81 818.59 C 746.67 817.26 745.22 816.59 743.49 816.59 L 738.82 816.59 L 748.54 780.51 Z" fill="#605c5d" fill-rule="nonzero" group-id="1" id="路径" node-id="35" stroke="none" target-height="347.78003" target-width="738.00995" target-x="158.46" target-y="780.51"></path><path d="M 803.82 843.18 C 797.12 838.44 792.03 832.43 788.55 825.14 C 904.44 766.03 987.58 912.22 1009.56 1003.58 C 1011.95 1013.51 1016.00 1020.61 1003.62 1026.28 C 1000.76 1027.59 997.46 1027.58 994.60 1026.25 C 991.75 1024.91 989.62 1022.38 988.80 1019.34 C 967.16 939.53 911.49 811.82 803.82 843.18 Z" fill="#678490" fill-rule="nonzero" group-id="1" id="路径" node-id="36" stroke="none" target-height="261.55994" target-width="227.45001" target-x="788.55" target-y="766.03"></path><path d="M 738.82 816.59 L 743.49 816.59 C 745.22 816.59 746.67 817.26 747.81 818.59 L 863.76 954.96 C 865.50 956.99 865.37 958.90 863.37 960.67 L 851.94 970.83 C 850.27 972.35 848.68 972.25 847.16 970.55 L 727.50 834.41 L 738.82 816.59 Z" fill="#777677" fill-rule="nonzero" group-id="1" id="路径" node-id="37" stroke="none" target-height="155.75995" target-width="138" target-x="727.5" target-y="816.59"></path><path d="M 707.85 851.28 L 861.98 1026.89 C 863.24 1028.29 863.85 1029.94 863.81 1031.83 L 863.31 1096.93 C 863.28 1099.70 861.03 1101.92 858.26 1101.92 L 612.78 1101.37 C 610.52 1101.37 609.39 1100.26 609.39 1098.04 C 609.47 1020.89 609.91 943.73 610.73 866.54 C 610.76 864.32 611.30 862.08 612.34 859.83 C 640.64 859.49 682.66 864.99 707.85 851.28 Z" fill="#777677" fill-rule="nonzero" group-id="1" id="路径" node-id="38" stroke="none" target-height="250.64001" target-width="254.45996" target-x="609.39" target-y="851.28"></path><path d="M 183.59 859.83 L 581.81 859.83 L 582.70 1088.94 C 582.71 1092.32 581.38 1095.58 579.00 1097.98 C 576.61 1100.38 573.37 1101.74 569.99 1101.76 L 184.75 1102.37 C 184.32 1102.37 183.97 1102.05 183.97 1101.65 L 183.59 859.83 Z" fill="#777677" fill-rule="nonzero" group-id="1" id="路径" node-id="39" stroke="none" target-height="242.53998" target-width="399.12003" target-x="183.59" target-y="859.83"></path></g></svg>