<svg t="1690642622615" class="icon" viewBox="0 0 1024 1024" version="1.1" xmlns="http://www.w3.org/2000/svg" p-id="1042" width="200" height="200"><path d="M553.4 93.4c204.8 7.5 370 172.7 377.5 377.5H554.2l-0.8-377.5zM772.4 805.6L520.3 553.3l357-0.2c-3.6 97.4-42.8 185.8-104.9 252.5z" fill="#FFFFFF" p-id="1043"></path><path d="M485.3 930.9C269 930.9 93 754.9 93 538.6c0-211.4 168.2-384.3 377.8-392v392.3c0 0.4 0 0.9 0.1 1.3 0 0.1 0 0.2 0.1 0.4 0 0.3 0.1 0.7 0.2 1 0 0.1 0.1 0.2 0.1 0.3 0.1 0.4 0.2 0.7 0.3 1.1 0 0.1 0.1 0.1 0.1 0.2 0.1 0.4 0.2 0.8 0.4 1.1 0 0.1 0 0.1 0.1 0.2 0.2 0.4 0.3 0.8 0.5 1.1 0 0.1 0.1 0.1 0.1 0.2 0.2 0.4 0.4 0.7 0.6 1 0.1 0.1 0.2 0.2 0.3 0.4 0.2 0.3 0.4 0.5 0.6 0.8 0.3 0.3 0.6 0.7 0.9 1 0 0 0 0.1 0.1 0.1l276.8 277.1c-70.3 64.9-164 104.7-266.8 104.7z" fill="#FFFFFF" p-id="1044"></path><path d="M485.3 900.9C269 900.9 93 727.5 93 514.3 93 305.9 261.2 135.5 470.8 128v386.6c0 0.4 0 0.8 0.1 1.3 0 0.1 0 0.2 0.1 0.4 0 0.3 0.1 0.7 0.2 1 0 0.1 0.1 0.2 0.1 0.3 0.1 0.4 0.2 0.7 0.3 1 0 0.1 0.1 0.1 0.1 0.2 0.1 0.4 0.2 0.7 0.4 1.1 0 0.1 0 0.1 0.1 0.2 0.2 0.4 0.3 0.7 0.5 1.1 0 0.1 0.1 0.1 0.1 0.2 0.2 0.3 0.4 0.7 0.6 1l0.3 0.3c0.2 0.3 0.4 0.5 0.6 0.8 0.3 0.3 0.6 0.7 0.9 1 0 0 0 0.1 0.1 0.1l276.8 273c-70.3 64.1-164 103.3-266.8 103.3z" fill="#65D5EF" p-id="1045"></path><path d="M742.4 805.6L490.3 553.3l357-0.2c-3.6 97.4-42.8 185.8-104.9 252.5z" fill="#E87A66" p-id="1046"></path><path d="M530.3 93.4c201 7.5 363.2 172.7 370.6 377.5H531.1l-0.8-377.5z" fill="#F7DF8A" p-id="1047"></path><path d="M926.9 321.4c-21.2-50.2-51.6-95.2-90.3-133.9-38.7-38.7-83.7-69.1-133.9-90.3-51.9-22-107.1-33.1-164-33.1-3.9 0-7.6 1.5-10.3 4.3-2.7 2.7-4.2 6.4-4.2 10.3l0.9 406.8c0 8 6.5 14.5 14.5 14.5h405.9c8 0 14.5-6.5 14.5-14.5 0-57-11.1-112.1-33.1-164.1zM554.1 470.9v-21.4h131.1c8 0 14.5-6.5 14.5-14.5s-6.5-14.5-14.5-14.5H554l-0.7-327c204.8 7.5 370 172.7 377.5 377.5H554.1z" fill="#274359" p-id="1048"></path><path d="M892.1 524.1l-392.3 0.2V131.8c0-3.8-1.5-7.5-4.3-10.3-2.7-2.7-6.4-4.3-10.3-4.3-56.9 0-112 11.1-164 33.1-50.2 21.2-95.2 51.6-133.9 90.3-38.7 38.7-69.1 83.7-90.3 133.9-22 51.9-33.1 107.1-33.1 164 0 56.9 11.1 112 33.1 164 21.2 50.2 51.6 95.2 90.3 133.9 38.7 38.7 83.7 69.1 133.9 90.3 51.9 22 107.1 33.1 164 33.1 56.9 0 112-11.1 164-33.1 50-21.2 95-51.4 133.6-90h0.1l0.2-0.2c38.7-38.7 69.1-83.7 90.3-133.9 22-51.9 33.1-107.1 33.1-164 0-3.9-1.5-7.5-4.3-10.3-2.6-2.7-6.3-4.2-10.1-4.2zM485.3 930.9C269 930.9 93 754.9 93 538.6c0-211.4 168.2-384.3 377.8-392v392.3c0 0.4 0 0.9 0.1 1.3 0 0.1 0 0.2 0.1 0.4 0 0.3 0.1 0.7 0.2 1 0 0.1 0.1 0.2 0.1 0.3 0.1 0.4 0.2 0.7 0.3 1.1 0 0.1 0.1 0.1 0.1 0.2 0.1 0.4 0.2 0.8 0.4 1.1 0 0.1 0 0.1 0.1 0.2 0.2 0.4 0.3 0.8 0.5 1.1 0 0.1 0.1 0.1 0.1 0.2 0.2 0.4 0.4 0.7 0.6 1 0.1 0.1 0.2 0.2 0.3 0.4 0.2 0.3 0.4 0.5 0.6 0.8 0.3 0.3 0.6 0.7 0.9 1 0 0 0 0.1 0.1 0.1l276.8 277.1c-70.3 64.9-164 104.7-266.8 104.7z m287.1-125.3L520.3 553.3l357-0.2c-3.6 97.4-42.8 185.8-104.9 252.5z" fill="#274359" p-id="1049"></path><path d="M782.6 420.4h-33.9c-8 0-14.5 6.5-14.5 14.5s6.5 14.5 14.5 14.5h33.9c8 0 14.5-6.5 14.5-14.5s-6.5-14.5-14.5-14.5z" fill="#274359" p-id="1050"></path></svg>