<svg t="1690554415436" class="icon" viewBox="0 0 1024 1024" version="1.1" xmlns="http://www.w3.org/2000/svg" p-id="1376" width="200" height="200"><path d="M447.67 483h-128a32 32 0 0 0 0 64h128a32 32 0 1 0 0-64z" fill="#515151" p-id="1377"></path><path d="M863 66.16H161a64.19 64.19 0 0 0-64 64v767.68a64.19 64.19 0 0 0 64 64h702a64.19 64.19 0 0 0 64-64V130.16a64.19 64.19 0 0 0-64-64z m0 831.58l-0.11 0.11H161.12l-0.11-0.11V130.27l0.11-0.11h701.76l0.11 0.11z" fill="#515151" p-id="1378"></path><path d="M319 290.58h383.25a32 32 0 0 0 0-64H319a32 32 0 1 0 0 64zM319 418.41h383.25a32 32 0 0 0 0-64H319a32 32 0 0 0 0 64zM681.06 497.87l-0.19-0.18-0.69-0.65-0.42-0.36-0.51-0.43-0.54-0.42-0.41-0.32-0.62-0.44-0.37-0.26-0.66-0.42-0.37-0.23-0.67-0.39-0.39-0.22-0.22-0.12-0.44-0.22-0.45-0.22-0.62-0.28-0.52-0.22-0.2-0.09-0.37-0.14-0.59-0.22-0.52-0.18-0.65-0.21-0.16-0.05-0.33-0.09-0.7-0.19-0.48-0.11-0.71-0.15h-0.13l-0.37-0.06-0.69-0.11-0.58-0.07-0.63-0.07-0.71-0.05h-3.38l-0.86 0.07-0.64 0.08-0.57 0.07-0.72 0.12-0.48 0.09-0.73 0.16-0.46 0.11-0.7 0.19-0.48 0.14-0.64 0.21-0.53 0.18-0.56 0.21-0.6 0.24-0.47 0.21-0.66 0.3-0.39 0.2-0.53 0.26-0.18 0.1-0.32 0.18-0.74 0.43-0.27 0.17-0.75 0.49-0.26 0.18-0.73 0.52-0.28 0.22-0.67 0.53-0.38 0.33-0.54 0.47q-0.45 0.41-0.88 0.84l-85.85 86.29a25 25 0 0 0 35.48 35.23l43.15-43.45 0.54 241.75a25 25 0 0 0 25 24.94h0.06a25 25 0 0 0 24.94-25.06l-0.54-242 44.19 43.89A25 25 0 1 0 768 584.17z" fill="#515151" p-id="1379"></path></svg>