<svg t="1690642744153" class="icon" viewBox="0 0 1024 1024" version="1.1" xmlns="http://www.w3.org/2000/svg" p-id="2307" width="200" height="200"><path d="M112 112m128 0l544 0q128 0 128 128l0 544q0 128-128 128l-544 0q-128 0-128-128l0-544q0-128 128-128Z" fill="#FFFFFF" p-id="2308"></path><path d="M160 160m112 0l512 0q112 0 112 112l0 512q0 112-112 112l-512 0q-112 0-112-112l0-512q0-112 112-112Z" fill="#A0F090" p-id="2309"></path><path d="M784 928H240c-79.4 0-144-64.6-144-144V240c0-79.4 64.6-144 144-144h544c79.4 0 144 64.6 144 144v544c0 79.4-64.6 144-144 144zM240 128a112.12 112.12 0 0 0-112 112v544a112.12 112.12 0 0 0 112 112h544a112.12 112.12 0 0 0 112-112V240a112.12 112.12 0 0 0-112-112z" fill="#333333" p-id="2310"></path><path d="M256 448l480-160-176 496-130.29-144 115.05-161L384 592 256 448z" fill="#FFFFFF" p-id="2311"></path><path d="M368.63 467.23l304-119a16 16 0 0 1 21.06 19.79L560 784 429.71 640l115.05-161L384 576l-32.33-64.66a32 32 0 0 1 16.96-44.11z" fill="#82AAFA" p-id="2312"></path><path d="M560 800a16 16 0 0 1-11.86-5.27l-130.29-144a16 16 0 0 1-1.15-20l60.47-84.63-84 59a16 16 0 0 1-21.17-2.47l-128-144a16 16 0 0 1 6.9-25.81l480-160a16 16 0 0 1 20.14 20.53l-176 496A16 16 0 0 1 560 800zM450.22 638.82l103.66 114.57L710 313.55l-425.88 142L386.48 570.7l149.08-104.79a16 16 0 0 1 22.22 22.39z" fill="#333333" p-id="2313"></path></svg>