<svg t="1690642734281" class="icon" viewBox="0 0 1024 1024" version="1.1" xmlns="http://www.w3.org/2000/svg" p-id="2152" width="200" height="200"><path d="M667.8016 729.4464c-19.8656-20.1216-52.2752-20.2752-72.3968-0.4096l-28.5696 28.2624v-200.9088c0-28.2624-22.9376-51.2-51.2-51.2s-51.2 22.9376-51.2 51.2v201.0112l-28.5184-28.3136c-20.0704-19.9168-52.48-19.8144-72.3968 0.256-19.9168 20.0704-19.8144 52.48 0.256 72.3968L479.2832 916.48c9.984 9.9328 23.04 14.848 36.096 14.848 13.0048 0 26.0096-4.9152 35.9936-14.7968l116.0192-114.7392c20.1216-19.8144 20.2752-52.2752 0.4096-72.3456z" fill="#FFE37B" p-id="2153"></path><path d="M819.6096 470.1184h-5.3248c-3.072-162.5088-135.68-293.3248-298.9056-293.3248S219.4944 307.6096 216.4736 470.1184h-5.3248c-100.1984 0-181.4016 81.2032-181.4016 181.4016s81.2032 181.4016 181.4016 181.4016H344.3712l-5.8368-5.7856c-34.048-33.792-34.2528-89.0368-0.4608-123.0848 24.3712-24.5248 59.8528-31.488 90.5216-20.8384v-126.9248c0-47.9744 39.0656-87.04 87.04-87.04s87.04 39.0656 87.04 87.04v126.9248c30.72-10.7008 66.2528-3.6864 90.624 20.9408 33.7408 34.1504 33.4336 89.344-0.7168 123.0848l-5.7344 5.632h132.7616c100.1984 0 181.4016-81.2032 181.4016-181.4016 0-100.096-81.2032-181.3504-181.4016-181.3504z" fill="#8C7BFD" p-id="2154"></path></svg>