<svg t="1690642646685" class="icon" viewBox="0 0 1024 1024" version="1.1" xmlns="http://www.w3.org/2000/svg" p-id="1199" width="200" height="200"><path d="M529.6 117.9L114 544.6h151.7v279.3c0 39.8 32.6 72.4 72.4 72.4h114.6V738c0-5.7 4.7-10.3 10.3-10.3h133.1c5.7 0 10.3 4.7 10.3 10.3v158.3H721c39.8 0 72.4-32.6 72.4-72.4V544.6h151.7L529.6 117.9z" fill="#5764f1" p-id="1200"></path><path d="M687.3 879.4H572.7c-9.3 0-16.9-7.6-16.9-16.9V710.8h-120v151.7c0 9.3-7.6 16.9-16.9 16.9H304.4c-49.2 0-89.2-40-89.2-89.2V527.8H80.3c-6.8 0-12.9-4.1-15.5-10.3-2.6-6.2-1.3-13.5 3.5-18.3L483.8 72.4c3.2-3.3 7.5-5.1 12.1-5.1s8.9 1.8 12.1 5.1l415.5 426.8c4.7 4.9 6.1 12.1 3.5 18.3-2.6 6.2-8.8 10.3-15.5 10.3h-135v262.4c0 49.2-40 89.2-89.2 89.2z m-97.7-33.7h97.7c30.6 0 55.5-24.9 55.5-55.5V510.9c0-9.3 7.6-16.9 16.9-16.9h111.7L495.9 108.3 120.3 494H232c9.3 0 16.9 7.6 16.9 16.9v279.3c0 30.6 24.9 55.5 55.5 55.5h97.7V704.3c0-15 12.2-27.2 27.2-27.2h133.1c15 0 27.2 12.2 27.2 27.2v141.4z" fill="#5764f1" p-id="1201"></path></svg>