<svg t="1690642667442" class="icon" viewBox="0 0 1024 1024" version="1.1" xmlns="http://www.w3.org/2000/svg" p-id="1573" id="mx_n_1690642667443" width="200" height="200"><path d="M834.1 163.7H194.9c-45.7-6.4-79.9 31.9-79.9 82.9v523.1c0 51 34.2 89.3 79.9 89.3h639.2c45.7 0 79.9-38.3 79.9-89.3V246.6c0-44.6-34.2-89.3-79.9-82.9z m9.7 170.9L514.5 539.2 185.2 334.6c-12.4-6.2-18.6-12.4-18.6-24.8 0-18.6 18.6-37.2 37.3-37.2 6.2 0 12.4 0 18.6 6.2l292 173.6 292-179.9c18.6-12.4 37.3-6.2 49.7 12.4 6.2 6.2 6.2 12.4 6.2 18.6 0.1 12.5-6.2 24.9-18.6 31.1z" fill="#5764f1" p-id="1574"></path></svg>