<svg t="1690642724717" class="icon" viewBox="0 0 1024 1024" version="1.1" xmlns="http://www.w3.org/2000/svg" p-id="1995" width="200" height="200"><path d="M396.63268 264.83451h424.96c78.20549 0 141.619869 63.397647 141.619869 141.619869v458.32366c0 78.20549-63.397647 141.619869-141.619869 141.619869H396.63268c-78.20549 0-141.619869-63.397647-141.61987-141.619869V406.454379c0-78.20549 63.397647-141.619869 141.61987-141.619869z" fill="#B3F995" p-id="1996"></path><path d="M944.238431 215.993725H760.437124c-0.25098 0-0.501961 0-0.752941-0.016732a44.224418 44.224418 0 0 1-42.583007-44.356601V19.308758c0-10.474248 8.499869-18.974118 18.974118-18.974117h28.444445c4.400523 0 8.66719 1.539346 12.06379 4.333594L956.335686 152.930719c4.367059 3.597386 6.893595 8.968366 6.893595 14.623791v29.448366c-0.016732 10.507712-8.516601 18.99085-18.99085 18.990849z m-183.299346-37.931503H925.281046v-1.539346L757.693072 38.282876h-2.660392v133.354248c0 3.396601 2.576732 6.157386 5.906405 6.425098z" fill="#00B38A" p-id="1997"></path><path d="M634.645752 47.636078v122.160523c-1.23817 71.060915 53.274771 129.271634 124.335686 132.634772l1.121046 0.050196h159.974902v604.076339c0.050196 34.68549-26.75451 63.431111-61.222484 65.907451H210.522353c-34.484706-2.47634-61.27268-31.221961-61.222484-65.907451V113.543529c-0.050196-34.702222 26.75451-63.431111 61.222484-65.907451H634.645752M681.930458 0.351373H209.033203C148.931765 3.664314 101.914771 53.408627 101.998431 113.610458v792.880522c-0.100392 60.20183 46.933333 109.946144 107.034772 113.259085h651.294117c60.101438-3.312941 107.135163-53.073987 107.034772-113.259085V255.196863h-206.138563c-45.09281-2.141699-80.263529-39.822222-79.293071-84.948497V0.351373z" fill="#00B38A" p-id="1998"></path><path d="M826.913464 825.507974H241.894902c-7.311895-0.150588-14.255686-3.229281-19.275294-8.566798a27.14102 27.14102 0 0 1-7.34536-19.760522c-0.317908-15.10902 11.511634-27.708235 26.620654-28.310589h585.035294c15.10902 0.619085 26.938562 13.201569 26.620654 28.310589 0.301176 7.311895-2.342484 14.439739-7.362092 19.760522a27.186196 27.186196 0 0 1-19.275294 8.566798zM826.913464 675.421699H241.894902c-15.644444 0-28.32732-12.682876-28.32732-28.310588 0-15.644444 12.682876-28.32732 28.32732-28.32732h585.035294c15.644444 0 28.310588 12.682876 28.310588 28.32732s-12.682876 28.310588-28.32732 28.310588zM826.913464 524.783268H241.894902c-7.311895-0.150588-14.255686-3.229281-19.275294-8.566797a27.14102 27.14102 0 0 1-7.34536-19.760523c-0.317908-15.10902 11.511634-27.708235 26.620654-28.310589h585.035294c15.10902 0.619085 26.938562 13.201569 26.620654 28.310589 0.301176 7.311895-2.342484 14.423007-7.362092 19.760523a27.186196 27.186196 0 0 1-19.275294 8.566797zM853.534118 346.386405a27.216314 27.216314 0 0 1-26.620654 28.32732H241.894902c-15.644444 0-28.32732-12.682876-28.32732-28.310588 0-15.644444 12.682876-28.32732 28.32732-28.32732h585.035294c7.311895 0.150588 14.255686 3.229281 19.258562 8.566797 5.002876 5.304052 7.663268 12.431895 7.34536 19.743791z" fill="#00B38A" p-id="1999"></path></svg>