<svg t="1695217748805" class="icon" viewBox="0 0 1024 1024" version="1.1" xmlns="http://www.w3.org/2000/svg" p-id="7009" width="200" height="200"><path d="M398.904889 719.274667l-224.568889-224.540445a158.321778 158.321778 0 0 1 0-223.857778l224.568889-224.512a158.264889 158.264889 0 0 1 223.829333 0l224.568889 224.540445a158.264889 158.264889 0 0 1 0 223.829333l-224.568889 224.568889a158.264889 158.264889 0 0 1-223.829333 0" fill="#F83CB6" p-id="7010"></path><path d="M398.904889 957.070222l-224.568889-224.568889a158.293333 158.293333 0 0 1 0-223.800889l224.568889-224.540444a158.264889 158.264889 0 0 1 223.829333 0l224.568889 224.540444a158.236444 158.236444 0 0 1 0 223.800889l-224.568889 224.568889a158.264889 158.264889 0 0 1-223.829333 0" fill="#A267F8" p-id="7011"></path><path d="M622.734222 719.303111l217.543111-217.6-217.543111-217.543111a158.264889 158.264889 0 0 0-223.829333 0l-217.6 217.571556 217.6 217.571555a158.264889 158.264889 0 0 0 223.857778 0" fill="#7E42B9" p-id="7012"></path></svg>