<svg t="1692453449833" class="icon" viewBox="0 0 1024 1024" version="1.1" xmlns="http://www.w3.org/2000/svg" p-id="22930" width="200" height="200"><path d="M840.362667 675.306667l85.610666-66.282667c6.037333-4.672 5.376-13.834667-1.418666-17.301333-33.973333-17.354667-125.290667-60.224-229.685334-77.802667a10.506667 10.506667 0 0 0-12.202666 10.421333v233.92c0 5.269333 3.850667 9.738667 9.056 10.613334 86.101333 14.485333 167.146667 47.189333 211.626666 67.381333 9.898667 4.501333 20.426667-7.146667 14.730667-16.405333l-80.277333-130.528a10.666667 10.666667 0 0 1 2.56-14.026667z" fill="#8a8a8a" p-id="22931"></path><path d="M860.992 686.314667l78.048-60.416c17.76-13.76 16.64-42.24-4.778667-53.173334-34.752-17.749333-128.32-61.728-235.84-79.829333-19.733333-3.328-37.088 12.053333-37.088 31.466667v233.92a32.138667 32.138667 0 0 0 26.848 31.648c83.466667 14.026667 162.581333 45.888 206.346667 65.76 15.029333 6.826667 29.770667 0.810667 37.888-8.192 8.138667-9.045333 12.618667-24.533333 3.84-38.816l-75.264-122.368z m64.992-77.28l-85.621333 66.272a10.666667 10.666667 0 0 0-2.56 14.026666l80.277333 130.528c5.696 9.258667-4.832 20.906667-14.730667 16.405334-44.48-20.192-125.525333-52.906667-211.626666-67.381334a10.805333 10.805333 0 0 1-9.056-10.613333v-233.92a10.506667 10.506667 0 0 1 12.202666-10.421333c104.394667 17.578667 195.712 60.437333 229.685334 77.802666 6.794667 3.466667 7.456 12.629333 1.418666 17.290667z" fill="#8a8a8a" p-id="22932"></path><path d="M864 633.6c0-76.149333-12.192-114.357333-17.962667-128.170667a21.973333 21.973333 0 0 0-8.586666-10.186666c-15.882667-9.994667-65.205333-33.568-147.573334-7.018667a10.485333 10.485333 0 0 0-7.210666 9.994667v248.597333c0 7.04 6.72 12.128 13.6 10.634667 57.109333-12.458667 104.458667-3.093333 128.906666 4.170666 10.4 3.093333 21.728-0.917333 24.981334-11.264C856.213333 731.04 864 694.421333 864 633.6z" fill="#8a8a8a" p-id="22933"></path><path d="M885.333333 633.6c0-78.4-12.554667-119.498667-19.605333-136.384a43.285333 43.285333 0 0 0-16.906667-20.010667c-20.426667-12.874667-76.266667-38.037333-165.482666-9.28A31.818667 31.818667 0 0 0 661.333333 498.218667v248.597333c0 21.504 20.149333 35.701333 39.466667 31.477333 52.554667-11.456 96.106667-2.816 118.293333 3.786667 17.962667 5.333333 43.626667-0.576 51.413334-25.322667C877.333333 735.04 885.333333 696.234667 885.333333 633.6z m-39.296-128.16C851.797333 519.242667 864 557.461333 864 633.6c0 60.810667-7.786667 97.429333-13.845333 116.746667-3.253333 10.346667-14.581333 14.357333-24.981334 11.264-24.437333-7.253333-71.797333-16.618667-128.906666-4.16-6.88 1.493333-13.6-3.605333-13.6-10.645334V498.218667c0-4.533333 2.901333-8.597333 7.210666-9.994667 82.368-26.549333 131.690667-2.976 147.573334 7.029333 3.872 2.442667 6.826667 5.962667 8.586666 10.186667z" fill="#8a8a8a" p-id="22934"></path><path d="M183.637333 675.306667L98.026667 609.013333c-6.037333-4.672-5.376-13.834667 1.418666-17.301333 33.973333-17.354667 125.290667-60.224 229.685334-77.802667a10.506667 10.506667 0 0 1 12.202666 10.421334v233.92c0 5.269333-3.850667 9.738667-9.056 10.613333-86.101333 14.485333-167.146667 47.189333-211.626666 67.381333-9.898667 4.501333-20.426667-7.146667-14.730667-16.405333l80.277333-130.528a10.666667 10.666667 0 0 0-2.56-14.026667z" fill="#8a8a8a" p-id="22935"></path><path d="M163.008 686.314667l-78.048-60.416c-17.76-13.76-16.64-42.24 4.778667-53.173334 34.752-17.749333 128.32-61.728 235.84-79.829333 19.733333-3.328 37.088 12.053333 37.088 31.466667v233.92a32.138667 32.138667 0 0 1-26.848 31.648c-83.466667 14.026667-162.581333 45.888-206.346667 65.76-15.029333 6.826667-29.770667 0.810667-37.888-8.192-8.149333-9.045333-12.618667-24.533333-3.84-38.816l75.264-122.368zM98.026667 609.034667l85.610666 66.272a10.666667 10.666667 0 0 1 2.56 14.026666L105.92 819.861333c-5.696 9.258667 4.832 20.906667 14.730667 16.405334 44.48-20.192 125.525333-52.906667 211.626666-67.381334 5.205333-0.874667 9.056-5.333333 9.056-10.613333v-233.92a10.506667 10.506667 0 0 0-12.202666-10.421333c-104.394667 17.578667-195.712 60.437333-229.685334 77.802666-6.794667 3.466667-7.456 12.629333-1.418666 17.290667z" fill="#8a8a8a" p-id="22936"></path><path d="M331.925333 749.418667a10.666667 10.666667 0 0 1-9.365333 11.829333c-36.373333 4.213333-75.946667 14.496-109.706667 25.685333-33.92 11.264-61.024 23.125333-72.661333 30.176a10.666667 10.666667 0 1 1-11.050667-18.250666c13.696-8.298667 42.602667-20.757333 77.002667-32.170667 34.581333-11.466667 75.658667-22.186667 113.962667-26.634667a10.666667 10.666667 0 0 1 11.818666 9.365334z" fill="#8a8a8a" p-id="22937"></path><path d="M160 633.6c0-76.149333 12.192-114.357333 17.962667-128.170667a21.973333 21.973333 0 0 1 8.586666-10.186666c15.872-9.994667 65.205333-33.568 147.573334-7.018667 4.309333 1.386667 7.210667 5.461333 7.210666 9.994667v248.597333c0 7.04-6.72 12.128-13.6 10.634667-57.109333-12.458667-104.469333-3.093333-128.906666 4.170666-10.410667 3.093333-21.728-0.917333-24.981334-11.264C167.786667 731.04 160 694.421333 160 633.6z" fill="#8a8a8a" p-id="22938"></path><path d="M138.666667 633.6c0-78.4 12.554667-119.498667 19.605333-136.384a43.285333 43.285333 0 0 1 16.906667-20.010667c20.426667-12.874667 76.266667-38.037333 165.482666-9.28A31.818667 31.818667 0 0 1 362.666667 498.218667v248.597333c0 21.504-20.149333 35.701333-39.466667 31.477333-52.554667-11.456-96.106667-2.816-118.293333 3.786667-17.962667 5.333333-43.626667-0.576-51.413334-25.322667C146.666667 735.04 138.666667 696.234667 138.666667 633.6z m39.296-128.16C172.202667 519.242667 160 557.461333 160 633.6c0 60.810667 7.786667 97.429333 13.845333 116.746667 3.253333 10.346667 14.581333 14.357333 24.981334 11.264 24.437333-7.253333 71.797333-16.618667 128.906666-4.16 6.88 1.493333 13.6-3.605333 13.6-10.645334V498.218667a10.485333 10.485333 0 0 0-7.210666-9.994667c-82.368-26.549333-131.701333-2.976-147.573334 7.029333-3.872 2.442667-6.826667 5.962667-8.586666 10.186667z" fill="#8a8a8a" p-id="22939"></path><path d="M170.666667 629.333333c0-53.653333 8.810667-96.277333 13.770666-116.032a32.448 32.448 0 0 1 13.28-19.221333C228.330667 473.461333 329.941333 416 512 416c181.002667 0 282.485333 56.789333 313.738667 77.717333a33.312 33.312 0 0 1 13.76 20.234667C844.448 534.826667 853.333333 579.306667 853.333333 629.333333c0 38.912-5.376 74.464-10.090666 98.176-2.901333 14.570667-20.021333 20.970667-33.034667 13.813334C765.248 716.608 663.146667 672 512 672c-152.032 0-254.421333 45.12-298.986667 69.749333-12.778667 7.061333-29.482667 1.013333-32.416-13.301333A500.053333 500.053333 0 0 1 170.666667 629.333333z" fill="#8a8a8a" p-id="22940"></path><path d="M149.333333 629.333333c0-55.893333 9.162667-100.32 14.410667-121.226666a53.792 53.792 0 0 1 22.058667-31.722667C219.456 453.706667 325.162667 394.666667 512 394.666667c185.749333 0 291.306667 58.357333 325.610667 81.322666 11.872 7.946667 19.552 19.946667 22.645333 33.045334l-20.757333 4.906666a33.312 33.312 0 0 0-13.76-20.224C794.485333 472.789333 693.002667 416 512 416c-182.058667 0-283.669333 57.461333-314.282667 78.08a32.448 32.448 0 0 0-13.28 19.221333C179.477333 533.056 170.666667 575.690667 170.666667 629.333333c0 41.418667 5.248 76.277333 9.930666 99.114667 2.933333 14.314667 19.626667 20.373333 32.426667 13.301333C257.578667 717.12 359.968 672 512 672c151.157333 0 253.248 44.608 298.208 69.322667 13.013333 7.146667 30.133333 0.746667 33.034667-13.813334C847.957333 703.786667 853.333333 668.245333 853.333333 629.333333c0-50.026667-8.885333-94.496-13.834666-115.381333l20.757333-4.917333C865.408 530.762667 874.666667 577.013333 874.666667 629.333333c0 40.746667-5.610667 77.770667-10.506667 102.336-6.186667 31.146667-40.842667 41.205333-64.234667 28.341334C757.418667 736.650667 658.848 693.333333 512 693.333333c-147.690667 0-246.549333 43.818667-288.661333 67.093334-22.954667 12.682667-57.28 3.317333-63.637334-27.701334A521.333333 521.333333 0 0 1 149.333333 629.333333z" fill="#8a8a8a" p-id="22941"></path><path d="M767.008 512c0 6.890667-5.450667 12.48-12.181333 12.48-6.730667 0-12.192-5.589333-12.192-12.48 0-6.912 5.461333-12.501333 12.192-12.501333 6.72 0 12.181333 5.589333 12.181333 12.490666zM705.002667 470.634667c0 5.589333-4.426667 10.133333-9.888 10.133333a10.016 10.016 0 0 1-9.877334-10.133333c0-5.6 4.426667-10.133333 9.877334-10.133334 5.461333 0 9.888 4.533333 9.888 10.133334zM715.562667 512c0 8.576-6.794667 15.541333-15.168 15.541333-8.373333 0-15.157333-6.965333-15.157334-15.541333 0-8.586667 6.784-15.541333 15.157334-15.541333s15.157333 6.954667 15.157333 15.541333zM756.736 560.352c0 8.586667-6.794667 15.541333-15.168 15.541333-8.373333 0-15.157333-6.954667-15.157333-15.541333s6.784-15.541333 15.157333-15.541333 15.168 6.954667 15.168 15.541333zM788.16 552.586667a7.68 7.68 0 0 1-7.584 7.765333 7.68 7.68 0 0 1-7.584-7.765333 7.68 7.68 0 0 1 7.573333-7.776 7.68 7.68 0 0 1 7.584 7.776zM707.978667 565.973333a7.68 7.68 0 0 1-7.573334 7.776 7.68 7.68 0 0 1-7.594666-7.776 7.68 7.68 0 0 1 7.584-7.765333 7.68 7.68 0 0 1 7.573333 7.765333zM663.733333 468.266667a7.68 7.68 0 0 1-7.573333 7.776 7.68 7.68 0 0 1-7.584-7.776 7.68 7.68 0 0 1 7.573333-7.765334 7.68 7.68 0 0 1 7.584 7.765334zM742.634667 480.768a7.68 7.68 0 0 1-7.573334 7.776 7.68 7.68 0 0 1-7.584-7.776 7.68 7.68 0 0 1 7.573334-7.765333 7.68 7.68 0 0 1 7.584 7.765333zM780.576 606.816a7.68 7.68 0 0 1-7.584 7.765333 7.68 7.68 0 0 1-7.573333-7.765333 7.68 7.68 0 0 1 7.573333-7.776 7.68 7.68 0 0 1 7.573333 7.776zM741.568 614.581333a7.68 7.68 0 0 1-7.573333 7.776 7.68 7.68 0 0 1-7.584-7.776 7.68 7.68 0 0 1 7.573333-7.765333 7.68 7.68 0 0 1 7.584 7.765333zM829.504 667.562667a7.68 7.68 0 0 1-7.573333 7.765333 7.68 7.68 0 0 1-7.584-7.765333 7.68 7.68 0 0 1 7.573333-7.776 7.68 7.68 0 0 1 7.584 7.776zM800.565333 512.96a7.68 7.68 0 0 1-7.573333 7.765333 7.68 7.68 0 0 1-7.584-7.765333 7.68 7.68 0 0 1 7.573333-7.776 7.68 7.68 0 0 1 7.584 7.776zM817.173333 586.4c0 6.976-5.525333 12.64-12.341333 12.64s-12.341333-5.653333-12.341333-12.64 5.525333-12.650667 12.341333-12.650667 12.341333 5.653333 12.341333 12.650667zM829.504 532.16c0 6.986667-5.525333 12.650667-12.341333 12.650667-6.805333 0-12.330667-5.653333-12.330667-12.64s5.525333-12.650667 12.330667-12.650667c6.826667 0 12.341333 5.653333 12.341333 12.650667zM805.248 642.773333c0 6.976-5.525333 12.64-12.330667 12.64-6.826667 0-12.341333-5.653333-12.341333-12.64s5.525333-12.650667 12.341333-12.650666c6.805333 0 12.330667 5.664 12.330667 12.650666zM833.248 622.357333a7.68 7.68 0 0 1-7.573333 7.765334 7.68 7.68 0 0 1-7.584-7.765334 7.68 7.68 0 0 1 7.573333-7.776 7.68 7.68 0 0 1 7.584 7.776z" fill="#8a8a8a" p-id="22942"></path><path d="M208.885333 511.274667a10.666667 10.666667 0 0 1 6.506667 13.610666c-8.992 25.461333-12.330667 61.866667-12.586667 97.92-0.213333 28.096 1.44 55.232 3.434667 75.509334 110.506667-52.48 363.765333-115.68 602.624 6.869333a10.666667 10.666667 0 0 1-9.738667 18.976c-241.194667-123.744-498.688-51.52-596.842666-0.042667a10.666667 10.666667 0 0 1-15.530667-8.106666c-2.72-21.301333-5.546667-56.522667-5.290667-93.354667 0.277333-36.565333 3.594667-75.925333 13.813334-104.874667a10.666667 10.666667 0 0 1 13.610666-6.506666z" fill="#8a8a8a" p-id="22943"></path><path d="M800 448c0 159.061333-128.938667 288-288 288S224 607.061333 224 448s128.938667-288 288-288 288 128.938667 288 288z" fill="#8a8a8a" p-id="22944"></path><path d="M821.333333 448c0 170.837333-138.496 309.333333-309.333333 309.333333S202.666667 618.837333 202.666667 448s138.496-309.333333 309.333333-309.333333 309.333333 138.496 309.333333 309.333333zM512 736c159.061333 0 288-128.938667 288-288S671.061333 160 512 160 224 288.938667 224 448s128.938667 288 288 288z" fill="#8a8a8a" p-id="22945"></path><path d="M245.333333 458.666667a10.666667 10.666667 0 0 1-10.666666-10.666667c0-153.173333 124.16-277.333333 277.333333-277.333333a10.666667 10.666667 0 1 1 0 21.333333c-141.386667 0-256 114.613333-256 256a10.666667 10.666667 0 0 1-10.666667 10.666667z" fill="#8a8a8a" p-id="22946"></path><path d="M778.666667 437.333333a10.666667 10.666667 0 0 1 10.666666 10.666667c0 153.173333-124.16 277.333333-277.333333 277.333333a10.666667 10.666667 0 1 1 0-21.333333c141.386667 0 256-114.613333 256-256a10.666667 10.666667 0 0 1 10.666667-10.666667z" fill="#8a8a8a" p-id="22947"></path><path d="M725.333333 448c0 117.824-95.509333 213.333333-213.333333 213.333333s-213.333333-95.509333-213.333333-213.333333 95.509333-213.333333 213.333333-213.333333 213.333333 95.509333 213.333333 213.333333z" fill="#8a8a8a" p-id="22948"></path><path d="M746.666667 448c0 129.6-105.066667 234.666667-234.666667 234.666667s-234.666667-105.066667-234.666667-234.666667 105.066667-234.666667 234.666667-234.666667 234.666667 105.066667 234.666667 234.666667zM512 661.333333c117.824 0 213.333333-95.509333 213.333333-213.333333s-95.509333-213.333333-213.333333-213.333333-213.333333 95.509333-213.333333 213.333333 95.509333 213.333333 213.333333 213.333333z" fill="#8a8a8a" p-id="22949"></path><path d="M512 629.333333c100.149333 0 181.333333-81.184 181.333333-181.333333a10.666667 10.666667 0 1 1 21.333334 0c0 111.925333-90.741333 202.666667-202.666667 202.666667a10.666667 10.666667 0 1 1 0-21.333334z" fill="#8a8a8a" p-id="22950"></path><path d="M512 266.666667c-100.149333 0-181.333333 81.184-181.333333 181.333333a10.666667 10.666667 0 1 1-21.333334 0c0-111.925333 90.741333-202.666667 202.666667-202.666667a10.666667 10.666667 0 1 1 0 21.333334z" fill="#8a8a8a" p-id="22951"></path><path d="M541.365333 544H405.653333c-6.08 0-10.997333-4.981333-10.997333-11.125333v-96.416c0-6.144 4.928-11.125333 11.008-11.125334h47.68c36.661333-29.418667 40.170667-81.557333 44-89.002666 12.832-24.96 41.557333-17.546667 51.338667-2.709334 5.429333 8.213333 5.589333 24.885333 0 47.466667-5.578667 22.570667-21.994667 44.245333-21.994667 44.245333h80.682667c18.677333 0 22.944 13.930667 21.770666 29.621334-3.829333 51.061333-23.648 89.045333-87.786666 89.045333z" fill="#8a8a8a" p-id="22952"></path><path d="M506.901333 341.109333v-0.021333c0.021333 0-0.213333 0.64-0.672 2.517333-0.341333 1.418667-0.704 3.050667-1.141333 5.013334l-0.661333 2.965333c-1.461333 6.506667-3.498667 15.061333-6.645334 24.416-5.845333 17.333333-15.733333 38.144-33.770666 54.272V533.333333h77.354666c29.845333 0 47.466667-8.736 58.368-21.6 11.306667-13.344 16.928-32.906667 18.773334-57.578666 0.533333-7.04-0.373333-11.786667-1.952-14.421334-1.002667-1.685333-2.912-3.733333-9.173334-3.733333h-80.682666a10.666667 10.666667 0 0 1-8.512-17.098667l0.021333-0.021333 0.106667-0.138667c0.085333-0.138667 0.245333-0.341333 0.448-0.629333a157.024 157.024 0 0 0 7.626666-11.808c4.576-7.850667 9.514667-17.92 11.946667-27.786667 2.666667-10.741333 3.84-19.637333 3.818667-26.517333-0.010667-7.136-1.312-10.912-2.357334-12.512-2.933333-4.437333-9.397333-8.384-16.245333-8.789333-5.973333-0.352-12.266667 1.941333-16.650667 10.410666z m39.274667 73.557334c4.725333-8.405333 10.016-19.456 12.874667-31.029334 2.922667-11.84 4.458667-22.549333 4.437333-31.690666-0.021333-8.906667-1.514667-17.568-5.888-24.192-6.848-10.4-19.637333-17.578667-32.8-18.346667-14.037333-0.832-28.490667 5.642667-36.928 22.048-1.152 2.24-1.888 5.12-2.368 7.114667-0.394667 1.621333-0.832 3.584-1.290667 5.664l-0.597333 2.666666a220.8 220.8 0 0 1-6.058667 22.293334c-5.290667 15.712-13.728 32.768-28.106666 45.472h-43.786667A21.728 21.728 0 0 0 384 436.458667v96.416c0 11.925333 9.6 21.792 21.674667 21.792h135.68c34.304 0 58.666667-10.261333 74.666666-29.152 15.594667-18.410667 21.792-43.370667 23.765334-69.76 0.650667-8.64 0.021333-18.709333-4.917334-26.965334-5.504-9.205333-15.072-14.122667-27.488-14.122666h-61.205333z m-103.498667 21.333333h-37.013333l-0.085333 0.010667a0.352 0.352 0 0 0-0.106667 0.085333 0.48 0.48 0 0 0-0.138667 0.362667v96.416c0 0.106667 0.021333 0.16 0.042667 0.213333 0.021333 0.053333 0.053333 0.106667 0.106667 0.149333a0.362667 0.362667 0 0 0 0.106666 0.085334l0.085334 0.010666h37.013333v-97.333333z" fill="#8a8a8a" p-id="22953"></path></svg>