<svg t="1692881971630" class="icon" viewBox="0 0 1024 1024" version="1.1" xmlns="http://www.w3.org/2000/svg" p-id="5921" width="200" height="200"><path d="M0 0h1024v1024H0V0z" fill="#202425" opacity=".01" p-id="5922"></path><path d="M989.866667 512c0 263.918933-213.947733 477.866667-477.866667 477.866667S34.133333 775.918933 34.133333 512 248.081067 34.133333 512 34.133333s477.866667 213.947733 477.866667 477.866667z" fill="#446a76" p-id="5923" data-spm-anchor-id="a313x.search_index.0.i5.72a33a81gwvLyV" class="selected"></path><path d="M787.114667 339.285333a51.2 51.2 0 0 1 0 72.362667l-307.2 307.2a51.2 51.2 0 0 1-72.362667 0l-170.666667-170.666667a51.2 51.2 0 0 1 72.362667-72.362666L443.733333 610.235733l271.018667-271.018666a51.2 51.2 0 0 1 72.362667 0z" fill="#ffffff" p-id="5924" data-spm-anchor-id="a313x.search_index.0.i6.72a33a81gwvLyV" class=""></path></svg>