<svg t="1692876815323" class="icon" viewBox="0 0 1024 1024" version="1.1" xmlns="http://www.w3.org/2000/svg" p-id="4020" width="200" height="200"><path d="M515.746816 27.834368c-268.552192 0-486.250496 217.703424-486.250496 486.250496 0 268.552192 217.698304 486.250496 486.250496 486.250496 268.547072 0 486.250496-217.698304 486.250496-486.250496C1001.997312 245.537792 784.292864 27.834368 515.746816 27.834368zM809.873408 341.143552 430.258176 714.156032c-3.54816 3.46624-8.33536 5.446656-13.32736 5.446656-0.082944 0-0.123904 0-0.205824 0-5.074944-0.082944-9.903104-2.14528-13.410304-5.776384L221.345792 526.907392c-7.345152-7.510016-7.179264-19.5584 0.371712-26.861568 7.468032-7.303168 19.5584-7.138304 26.861568 0.371712l168.639488 173.21984 365.999104-359.64416c7.510016-7.345152 19.434496-7.262208 26.903552 0.247808C817.465344 321.750016 817.342464 333.75744 809.873408 341.143552z" fill="#386b78" p-id="4021"></path></svg>