<svg t="1693583234230" class="icon" viewBox="0 0 1024 1024" version="1.1" xmlns="http://www.w3.org/2000/svg" p-id="9509" data-spm-anchor-id="a313x.search_index.0.i4.3dad3a817sC3J5" width="200" height="200"><path d="M507.136 520.96m-450.816 0a450.816 450.816 0 1 0 901.632 0 450.816 450.816 0 1 0-901.632 0Z" fill="#7580f5" p-id="9510" data-spm-anchor-id="a313x.search_index.0.i2.3dad3a817sC3J5" class="selected"></path><path d="M241.3056 292.608v456.704c0 43.008 48.5376 68.0448 83.5584 43.1104l102.656-73.0112v29.9008c0 43.008 48.5376 68.0448 83.5584 43.1104l321.024-228.352c29.6448-21.0944 29.6448-65.1264 0-86.2208l-321.024-228.352c-35.0208-24.9344-83.5584 0.1024-83.5584 43.1104v29.9008L324.9152 249.4976c-35.0208-24.9344-83.6096 0.1024-83.6096 43.1104z m269.056 99.1232a35.81952 35.81952 0 0 1 49.3568-11.6224L706.7648 471.04a35.81952 35.81952 0 0 1 11.6224 49.3568 35.84 35.84 0 0 1-30.5152 16.9984 35.4304 35.4304 0 0 1-18.7904-5.376l-147.0464-90.9312c-16.8448-10.4448-22.0672-32.512-11.6736-49.3568z" fill="#FFFFFF" p-id="9511" data-spm-anchor-id="a313x.search_index.0.i3.3dad3a817sC3J5" class=""></path></svg>