<svg t="1693583284437" class="icon" viewBox="0 0 1024 1024" version="1.1" xmlns="http://www.w3.org/2000/svg" p-id="10662" width="200" height="200"><path d="M507.904 520.96m-450.816 0a450.816 450.816 0 1 0 901.632 0 450.816 450.816 0 1 0-901.632 0Z" fill="#7580f5" p-id="10663" data-spm-anchor-id="a313x.search_index.0.i8.3dad3a817sC3J5" class="selected"></path><path d="M691.3536 249.4976l-102.656 73.0112v-29.9008c0-43.008-48.5376-68.0448-83.5584-43.1104l-321.024 228.352c-29.6448 21.0944-29.6448 65.1264 0 86.2208l321.024 228.352c35.0208 24.9344 83.5584-0.1024 83.5584-43.1104v-29.9008l102.656 73.0112c35.0208 24.9344 83.5584-0.1024 83.5584-43.1104v-456.704c0-43.008-48.5376-68.0448-83.5584-43.1104z m-197.12 191.5392L347.1872 531.968a35.77344 35.77344 0 0 1-49.3056-11.6224 35.87584 35.87584 0 0 1 11.6224-49.3568l147.0464-90.9312c16.8448-10.3936 38.912-5.2224 49.3568 11.6224s5.1712 38.9632-11.6736 49.3568z" fill="#FFFFFF" p-id="10664"></path></svg>