<svg t="1689850805790" class="icon" viewBox="0 0 1024 1024" version="1.1" xmlns="http://www.w3.org/2000/svg" p-id="2562" width="200" height="200"><path d="M512 128C299.936 128 128 299.92 128 512c0 16.496 1.152 32.704 3.184 48.656l18.128 6.144a207.84 207.84 0 0 1 42.72-24.832l4.368-21.824A50.048 50.048 0 0 1 245.344 480h60.224a50.08 50.08 0 0 1 48.96 40.144l4.352 21.824c15.12 6.528 29.392 14.816 42.72 24.832l21.28-7.2a50.08 50.08 0 0 1 59.232 22.32l30.112 52.176a50.016 50.016 0 0 1-10.304 62.464l-16.752 14.736a204.768 204.768 0 0 1 0 49.44l16.784 14.752a50.016 50.016 0 0 1 10.272 62.448l-30.096 52.144c-0.912 1.584-2.048 2.976-3.104 4.416 10.864 0.928 21.856 1.504 32.976 1.504 212.08 0 384-171.92 384-384S724.08 128 512 128z" fill="#40C4FF" p-id="2563"></path><path d="M275.456 656c-42.112 0-76.352 32.816-79.408 74.16a385.664 385.664 0 0 0 81.248 85.664c43.248-1.008 78.16-36.336 78.16-79.808a80.096 80.096 0 0 0-80-80.016z" fill="#40C4FF" p-id="2564"></path><path d="M275.456 656c-42.112 0-76.352 32.816-79.408 74.16a385.664 385.664 0 0 0 81.248 85.664c43.248-1.008 78.16-36.336 78.16-79.808a80.096 80.096 0 0 0-80-80.016z" fill="#40C4FF" p-id="2565"></path><path d="M512 904c-10.56 0-21.584-0.496-33.68-1.536a8 8 0 0 1-7.296-8.656 7.792 7.792 0 0 1 8.656-7.296A372.64 372.64 0 0 0 512 888c207.328 0 376-168.672 376-376S719.328 136 512 136 136 304.672 136 512c0 15.312 1.04 31.328 3.104 47.664a8 8 0 0 1-15.888 2A401.552 401.552 0 0 1 120 512C120 295.856 295.856 120 512 120S904 295.856 904 512 728.16 904 512 904zM277.28 823.808a8.048 8.048 0 0 1-4.896-1.664 393.584 393.584 0 0 1-82.928-87.44 7.968 7.968 0 1 1 13.152-9.088 377.456 377.456 0 0 0 79.568 83.888 8 8 0 0 1-4.896 14.304z" fill="#263238" p-id="2566"></path><path d="M64 520a8 8 0 0 1-8-8C56 260.56 260.56 56 512 56a8 8 0 0 1 0 16C269.376 72 72 269.376 72 512a8 8 0 0 1-8 8zM560 72h-16a8 8 0 0 1 0-16h16a8 8 0 0 1 0 16zM512 968a8 8 0 0 1 0-16c242.624 0 440-197.376 440-440a8 8 0 0 1 16 0c0 251.44-204.56 456-456 456zM848 104h-64a8 8 0 0 1 0-16h64a8 8 0 0 1 0 16z" fill="#263238" p-id="2567"></path><path d="M816 136a8 8 0 0 1-8-8V64a8 8 0 0 1 16 0v64a8 8 0 0 1-8 8zM960 208h-64a8 8 0 0 1 0-16h64a8 8 0 0 1 0 16z" fill="#263238" p-id="2568"></path><path d="M928 240a8 8 0 0 1-8-8v-64a8 8 0 0 1 16 0v64a8 8 0 0 1-8 8zM512 328c-109.904 0-215.44-23.696-289.552-65.008a8 8 0 1 1 7.792-13.968C302.048 289.04 404.752 312 512 312c107.248 0 209.952-22.96 281.744-62.992a8 8 0 0 1 7.792 13.968C727.44 304.304 621.904 328 512 328z" fill="#263238" p-id="2569"></path><path d="M512 904a8 8 0 0 1-8-8V128a8 8 0 0 1 16 0v768a8 8 0 0 1-8 8zM198.768 520H128a8 8 0 0 1 0-16h70.752a8 8 0 0 1 0.016 16z" fill="#263238" p-id="2570"></path><path d="M896 520H352.144a8 8 0 0 1 0-16H896a8 8 0 0 1 0 16z" fill="#263238" p-id="2571"></path><path d="M457.536 779.04l-7.232-4.176c2.768-12.528 4.352-25.504 4.352-38.88s-1.568-26.336-4.352-38.88l7.216-4.176 23.28-20.464a17.92 17.92 0 0 0 3.696-22.416l-30.112-52.144a17.92 17.92 0 0 0-21.264-8.016l-29.36 9.936-7.328 4.24a178.8 178.8 0 0 0-67.216-39.04V556.8l-6.08-30.4a17.92 17.92 0 0 0-17.568-14.4h-60.224a17.92 17.92 0 0 0-17.568 14.4l-6.08 30.4v8.224a178.896 178.896 0 0 0-67.216 39.04l-7.344-4.224-29.36-9.936a17.92 17.92 0 0 0-21.264 8.016L66.4 650.08a17.92 17.92 0 0 0 3.696 22.416l23.28 20.464 7.216 4.176c-2.768 12.528-4.336 25.504-4.336 38.864s1.568 26.352 4.352 38.88l-7.232 4.16-23.28 20.464a17.92 17.92 0 0 0-3.696 22.416l30.112 52.16a17.92 17.92 0 0 0 21.264 8.016l29.36-9.936 7.344-4.24a178.8 178.8 0 0 0 67.216 39.04v8.24l6.08 30.384a17.92 17.92 0 0 0 17.568 14.416h60.224a17.92 17.92 0 0 0 17.568-14.4l6.08-30.384v-8.24a178.768 178.768 0 0 0 67.216-39.04l7.344 4.24 29.36 9.936a17.92 17.92 0 0 0 21.264-8.016l30.112-52.16a17.92 17.92 0 0 0-3.696-22.416l-23.28-20.48zM275.456 848a112 112 0 1 1 0-224 112 112 0 0 1 0 224z" fill="#FFD740" p-id="2572"></path><path d="M305.568 968h-60.224c-12.32 0-23.008-8.768-25.408-20.848l-6.144-34.384a185.024 185.024 0 0 1-60.32-35.024l-2.336 1.344-30.8 10.592a26.032 26.032 0 0 1-30.752-11.6l-30.112-52.16a26 26 0 0 1 5.328-32.416l26.8-22.576c-2.24-11.728-3.36-23.456-3.36-34.928 0-11.44 1.12-23.136 3.344-34.832l-2.224-1.28-24.576-21.392a25.952 25.952 0 0 1-5.328-32.416l30.112-52.16a25.92 25.92 0 0 1 30.752-11.6l33.056 12a185.04 185.04 0 0 1 60.304-35.056V556.8l6.24-31.968a25.984 25.984 0 0 1 25.408-20.832h60.224c12.32 0 23.008 8.768 25.408 20.848l6.144 34.384a185.6 185.6 0 0 1 60.32 35.024l2.336-1.344 30.8-10.592a25.968 25.968 0 0 1 30.752 11.6l30.096 52.16a25.968 25.968 0 0 1-5.344 32.432l-26.784 22.576c2.224 11.696 3.36 23.424 3.36 34.928 0 11.456-1.12 23.152-3.344 34.832l2.224 1.28a8.976 8.976 0 0 1 1.28 0.928l23.28 20.464c9.248 8.112 11.504 21.744 5.328 32.416l-30.096 52.16a26 26 0 0 1-30.752 11.6l-33.056-12a184.88 184.88 0 0 1-60.304 35.056v2.464l-6.24 31.952a25.952 25.952 0 0 1-25.392 20.832z m-151.104-108.08c1.952 0 3.904 0.72 5.408 2.096a169.6 169.6 0 0 0 64.224 37.312 8 8 0 0 1 5.6 7.632v8.24l5.92 28.816a9.952 9.952 0 0 0 9.728 7.984h60.224c4.704 0 8.8-3.344 9.728-7.968l6.08-30.384-0.16-6.672a8 8 0 0 1 5.6-7.632 169.744 169.744 0 0 0 64.208-37.312 8.048 8.048 0 0 1 9.408-1.04l7.344 4.24 27.92 9.28a9.92 9.92 0 0 0 11.776-4.432l30.096-52.16a9.936 9.936 0 0 0-2.032-12.4l-22.688-19.952-6.544-3.776a8 8 0 0 1-3.808-8.656c2.752-12.464 4.16-24.96 4.16-37.152s-1.392-24.688-4.16-37.152a8 8 0 0 1 3.808-8.656l7.216-4.16 22-19.552a9.92 9.92 0 0 0 2.032-12.4l-30.096-52.16a9.984 9.984 0 0 0-11.776-4.432l-29.36 9.936-5.904 3.584a8 8 0 0 1-9.408-1.04 169.952 169.952 0 0 0-64.208-37.312 8 8 0 0 1-5.6-7.632V556.8l-5.92-28.816a9.952 9.952 0 0 0-9.728-7.984h-60.224a9.952 9.952 0 0 0-9.728 7.968l-6.08 30.4 0.16 6.672a8 8 0 0 1-5.6 7.632 169.712 169.712 0 0 0-64.224 37.312 8.016 8.016 0 0 1-9.408 1.024l-7.328-4.24-27.92-9.296a9.92 9.92 0 0 0-11.776 4.432l-30.112 52.16a9.936 9.936 0 0 0 2.032 12.4l23.296 20.464 5.936 3.248a8 8 0 0 1 3.808 8.656c-2.768 12.48-4.16 24.976-4.16 37.152s1.392 24.672 4.16 37.152a8 8 0 0 1-3.808 8.656l-7.232 4.176-22 19.536a9.952 9.952 0 0 0-2.032 12.416l30.112 52.144a9.952 9.952 0 0 0 11.776 4.432l29.344-9.936 5.888-3.584a8.336 8.336 0 0 1 4.032-1.056z m120.992-3.92c-66.176 0-120-53.824-120-120s53.824-120 120-120 120 53.824 120 120-53.824 120-120 120z m0-224c-57.344 0-104 46.656-104 104s46.656 104 104 104 104-46.656 104-104-46.656-104-104-104z" fill="#263238" p-id="2573"></path><path d="M797.648 776a8.096 8.096 0 0 1-3.888-1.008C721.952 734.96 619.264 712 512 712c-4.096 0-8.128 0.144-12.144 0.304l-6.816 0.224a7.728 7.728 0 0 1-8.208-7.792 8.016 8.016 0 0 1 7.792-8.208l6.656-0.224c4.208-0.144 8.432-0.304 12.72-0.304 109.904 0 215.424 23.696 289.536 65.008a8 8 0 0 1-3.888 14.992zM226.368 776a8 8 0 0 1-3.904-14.976c36.608-20.4 80.256-36.464 129.712-47.712a7.952 7.952 0 0 1 9.568 6.016 7.984 7.984 0 0 1-6.016 9.568c-47.984 10.928-90.192 26.432-125.456 46.08a8.096 8.096 0 0 1-3.904 1.024z" fill="#263238" p-id="2574"></path><path d="M342 788.288a8 8 0 0 1-6.848-3.856c-21.92-36.24-39.008-78.176-50.832-124.672a7.984 7.984 0 1 1 15.488-3.936c11.44 44.96 27.936 85.44 49.024 120.32a8 8 0 0 1-6.832 12.144zM512 904a8 8 0 0 1 0-16c126.672 0 229.712-168.672 229.712-376S638.672 136 512 136c-118.448 0-218.976 151.28-228.832 344.4a8.192 8.192 0 0 1-8.4 7.584 8 8 0 0 1-7.584-8.4C277.664 274.592 382.912 120 512 120c135.488 0 245.712 175.856 245.712 392S647.488 904 512 904z" fill="#263238" p-id="2575"></path><path d="M480 968h-16a8 8 0 0 1 0-16h16a8 8 0 0 1 0 16z" fill="#263238" p-id="2576"></path></svg>