<svg t="1692365555901" class="icon" viewBox="0 0 1024 1024" version="1.1" xmlns="http://www.w3.org/2000/svg" p-id="5128" width="200" height="200"><path d="M511.989 979.678c257.59 0 467.688-210.078 467.688-467.667 0-257.588-210.098-467.688-467.688-467.688-257.587 0-467.666 210.099-467.666 467.688s210.079 467.667 467.666 467.667z" fill="#EEB51A" p-id="5129"></path><path d="M511.989 983.178c-63.424 0-125.031-12.491-183.109-37.128-56.073-23.785-106.471-57.812-149.794-101.135-43.324-43.323-77.351-93.722-101.136-149.795-24.636-58.078-37.127-119.686-37.127-183.11S53.314 386.977 77.95 328.897c23.786-56.075 57.813-106.475 101.136-149.801 43.323-43.326 93.721-77.355 149.794-101.143 58.078-24.638 119.685-37.131 183.109-37.131 63.425 0 125.033 12.493 183.113 37.131 56.075 23.787 106.476 57.816 149.802 101.143 43.326 43.326 77.354 93.726 101.142 149.801 24.639 58.081 37.131 119.689 37.131 183.113s-12.492 125.032-37.131 183.111c-23.786 56.072-57.815 106.471-101.142 149.794s-93.727 77.35-149.802 101.135c-58.08 24.637-119.688 37.128-183.113 37.128z m0-935.355c-255.942 0-464.166 208.234-464.166 464.188 0 255.943 208.224 464.167 464.166 464.167 255.954 0 464.188-208.225 464.188-464.167 0-255.954-208.234-464.188-464.188-464.188z" p-id="5130"></path><path d="M511.989 910.68c219.606 0 398.689-179.084 398.689-398.669 0-219.584-179.083-398.688-398.689-398.688-219.563 0-398.688 179.104-398.688 398.688 0.001 219.585 179.125 398.669 398.688 398.669z" fill="#B33C23" p-id="5131"></path><path d="M511.989 914.18c-54.132 0-106.715-10.662-156.29-31.69-47.863-20.303-90.883-49.347-127.865-86.325-36.983-36.979-66.031-79.996-86.336-127.857-21.032-49.574-31.697-102.16-31.697-156.296 0-54.136 10.665-106.722 31.697-156.299 20.305-47.863 49.353-90.882 86.336-127.864 36.982-36.981 80.002-66.027 127.865-86.331 49.575-21.03 102.159-31.694 156.29-31.694 54.142 0 106.731 10.663 156.309 31.694 47.863 20.304 90.883 49.35 127.863 86.331 36.979 36.981 66.024 80 86.326 127.864 21.029 49.575 31.691 102.162 31.691 156.299s-10.662 106.723-31.691 156.296c-20.302 47.861-49.347 90.879-86.326 127.857-36.979 36.979-79.999 66.022-127.863 86.325-49.577 21.028-102.167 31.69-156.309 31.69z m0-797.357c-217.907 0-395.188 177.28-395.188 395.188 0 217.897 177.28 395.169 395.188 395.169s395.189-177.272 395.189-395.169c0.001-217.908-177.281-395.188-395.189-395.188z" p-id="5132"></path><path d="M531.546 903.689c204.197 0 370.754-166.959 370.754-371.66 0-204.701-166.557-371.66-370.754-371.66-204.198 0-370.755 166.959-370.755 371.66 0 204.701 166.557 371.66 370.755 371.66z" fill="#E74F2C" p-id="5133"></path><path d="M531.546 907.189c-50.377 0-99.313-9.947-145.446-29.564-44.539-18.94-84.571-46.034-118.983-80.531-34.412-34.495-61.44-74.624-80.333-119.271-19.569-46.244-29.492-95.296-29.492-145.794 0-50.498 9.922-99.55 29.492-145.794 18.894-44.646 45.921-84.775 80.333-119.271 34.413-34.497 74.444-61.591 118.983-80.531 46.134-19.618 95.069-29.565 145.446-29.565 50.377 0 99.313 9.947 145.445 29.565 44.539 18.94 84.571 46.034 118.983 80.531 34.412 34.496 61.44 74.624 80.333 119.271 19.569 46.244 29.492 95.296 29.492 145.794 0 50.498-9.923 99.55-29.492 145.794-18.893 44.646-45.921 84.775-80.333 119.271-34.412 34.497-74.444 61.591-118.983 80.531-46.133 19.617-95.068 29.564-145.445 29.564z m0-743.32c-202.505 0-367.255 165.156-367.255 368.16 0 203.004 164.75 368.16 367.255 368.16S898.8 735.033 898.8 532.029c0-203.004-164.749-368.16-367.254-368.16z" p-id="5134"></path><path d="M185.846 534.305l497.756 336.578C812.356 812.496 902.3 682.475 902.3 532.029c0-50.289-10.09-98.282-28.275-142.106l-119.33-97.376-568.849 241.758z" fill="#B13E23" p-id="5135"></path><path d="M683.264 874.879l-1.623-1.097-503.086-340.181L755.27 288.499l121.649 99.27 0.337 0.813c18.939 45.641 28.543 93.904 28.543 143.448 0 73.421-21.315 144.61-61.643 205.873-39.298 59.7-94.317 106.786-159.11 136.168l-1.782 0.808zM193.136 535.01l490.798 331.873C814.526 806.826 898.8 675.607 898.8 532.029c0-48.325-9.31-95.406-27.672-139.953l-117.009-95.482L193.136 535.01z" p-id="5136"></path><path d="M755.078 289.667L189.833 535.453l145.531 72.121 44.106 105.231 56.593-56.653 157.291 75.061z" fill="#FFFFFF" p-id="5137"></path><path d="M595.318 736.028l-158.529-75.651-58.53 58.593-45.618-108.839-151.108-74.885L761.174 283.2 595.318 736.028z m-159.982-84.1l156.055 74.47 157.592-430.263-550.85 239.525 139.955 69.357 42.593 101.622 54.655-54.711z" p-id="5138"></path><path d="M336.089 607.574l418.989-317.162-355.025 345.861-19.114 75.061z" fill="#CCCCCC" p-id="5139"></path><path d="M381.799 722.143l-50.013-115.701 465.995-352.745-394.58 384.396-21.402 84.05z m-41.407-113.436l39.688 91.817 16.824-66.07 0.706-0.688 314.765-306.64-371.983 281.581z" p-id="5140"></path><path d="M436.787 656.877l-37.479-19.133-18.369 73.59z" fill="#040000" p-id="5141"></path><path d="M374.559 722.444l22.419-89.819 45.745 23.353-68.164 66.466z m27.078-79.581l-14.317 57.36 43.531-42.447-29.214-14.913z" p-id="5142"></path><path d="M469.656 503.088l26.444-19.877-284.999 45.053z" fill="#CCCCCC" p-id="5143"></path><path d="M211.44 531.747l-0.886-6.94 298.891-47.249-38.471 28.919-259.534 25.27z m271.314-42.883l-155.366 24.561L468.339 499.7l14.415-10.836z" p-id="5144"></path><path d="M529.431 513.381l8.801-8.822 54.398 215.617z" fill="#CCCCCC" p-id="5145"></path><path d="M589.282 721.199L525.47 512.396l14.646-14.68 55.908 221.604-6.742 1.879z m-55.89-206.833l21.236 69.487-18.278-72.452-2.958 2.965z" p-id="5146"></path></svg>