<svg t="1693143032139" class="icon" viewBox="0 0 1024 1024" version="1.1" xmlns="http://www.w3.org/2000/svg" p-id="4969" width="200" height="200"><path d="M760.2688 950.3232H273.9712c-107.264 0-194.2016-86.9376-194.2016-194.2016V269.824c0-107.264 86.9376-194.2016 194.2016-194.2016h486.2464c107.264 0 194.2016 86.9376 194.2016 194.2016v486.2464c0.0512 107.264-86.8864 194.2528-194.1504 194.2528z" fill="#FC5656" p-id="4970"></path><path d="M793.9072 428.5952c14.1312 0 25.6-11.4688 25.6-25.6v-27.4944c0-47.3088-27.9552-90.2656-71.2192-109.4144L569.344 186.88a119.82336 119.82336 0 0 0-96.8192 0L293.5296 266.1376a119.73632 119.73632 0 0 0-71.2192 109.4144v256.9728c0 42.5984 22.9376 82.3296 59.8016 103.6288l178.944 103.3216c18.432 10.6496 39.1168 15.9744 59.8016 15.9744s41.3696-5.3248 59.8016-15.9744l178.944-103.3216c36.9152-21.2992 59.8016-61.0304 59.8016-103.6288V530.432c0-14.1312-11.4688-25.6-25.6-25.6s-25.6 11.4688-25.6 25.6v102.0416c0 24.3712-13.1072 47.104-34.2016 59.2896l-178.944 103.3216a68.6592 68.6592 0 0 1-68.4544 0L307.712 691.7632a68.67456 68.67456 0 0 1-34.2016-59.2896V375.552c0-27.0848 15.9744-51.6608 40.7552-62.5664l178.944-79.2064c17.6128-7.7824 37.7856-7.7824 55.3984 0l178.944 79.2064c24.7296 10.9568 40.7552 35.5328 40.7552 62.5664v27.4944c0 14.1312 11.4688 25.5488 25.6 25.5488z" fill="#F7F8F8" p-id="4971"></path><path d="M520.9088 687.3088c14.1312 0 25.6-11.4688 25.6-25.6V609.792h53.9136c14.1312 0 25.6-11.4688 25.6-25.6s-11.4688-25.6-25.6-25.6h-53.9136v-39.7824c38.656-11.1616 67.0208-46.7456 67.0208-88.9344 0-51.0464-41.5232-92.6208-92.6208-92.6208s-92.6208 41.5232-92.6208 92.6208c0 42.1888 28.3648 77.7728 67.0208 88.9344v142.8992c0 14.1312 11.4688 25.6 25.6 25.6z m-41.4208-257.4336c0-22.8352 18.5856-41.4208 41.4208-41.4208s41.4208 18.5856 41.4208 41.4208-18.5856 41.4208-41.4208 41.4208-41.4208-18.5856-41.4208-41.4208z" fill="#F7F8F8" p-id="4972"></path></svg>