<svg t="1693216815001" class="icon" viewBox="0 0 1024 1024" version="1.1" xmlns="http://www.w3.org/2000/svg" p-id="5152" width="200" height="200"><path d="M734.72 1004.032c-45.056 18.944-97.28-2.048-116.736-47.104l-99.328-232.448c-18.944-45.056 2.048-97.28 47.104-116.736 45.056-18.944 97.28 2.048 116.736 47.104l99.328 232.448c18.944 45.056-2.048 97.792-47.104 116.736z" fill="#FCD684" p-id="5153"></path><path d="M796.672 770.048l-99.84-11.264c-40.448-4.608-80.384 10.752-107.008 41.472l-66.048 75.776c-67.072 77.312-194.048 44.032-214.016-56.32l-19.968-98.816c-8.192-39.936-35.328-73.216-72.704-89.088l-92.672-39.424c-94.208-39.936-101.376-171.008-12.288-221.184L199.68 321.536c35.328-19.968 58.88-56.32 62.464-96.768l8.704-100.352C279.04 22.528 401.408-24.576 476.672 44.544L550.912 112.64c30.208 27.648 71.68 38.4 111.104 29.184l98.304-22.528c99.84-23.04 182.784 78.336 140.288 171.52l-41.984 91.648c-16.896 36.864-14.336 79.872 6.656 114.688l51.2 86.528c52.736 87.552-17.92 197.632-119.808 186.368z" fill="#F55569" p-id="5154" data-spm-anchor-id="a313x.search_index.0.i0.71b33a81SSR7Vn" class="selected"></path><path d="M842.752 500.224m-94.208 0a94.208 94.208 0 1 0 188.416 0 94.208 94.208 0 1 0-188.416 0Z" fill="#FCD684" p-id="5155" data-spm-anchor-id="a313x.search_index.0.i1.71b33a81SSR7Vn" class="selected"></path><path d="M432.128 343.552m-55.296 0a55.296 55.296 0 1 0 110.592 0 55.296 55.296 0 1 0-110.592 0Z" fill="#09C58F" p-id="5156" data-spm-anchor-id="a313x.search_index.0.i2.71b33a81SSR7Vn" class="selected"></path></svg>