<svg t="1692423149383" class="icon" viewBox="0 0 1024 1024" version="1.1" xmlns="http://www.w3.org/2000/svg" p-id="17690" width="200" height="200"><path d="M511.998658 511.998658m-511.998658 0a511.998658 511.998658 0 1 0 1023.997316 0 511.998658 511.998658 0 1 0-1023.997316 0Z" fill="#FF6D3B" p-id="17691"></path><path d="M96.418175 810.892882a511.765611 511.765611 0 0 0 831.160967 0z" fill="#F15424" p-id="17692"></path><path d="M583.819711 142.653419v612.279775a55.980874 55.980874 0 0 1-55.952625 55.959688h-415.954772V142.653419a55.987936 55.987936 0 0 1 55.945563-55.959688h471.91446A55.980874 55.980874 0 0 0 583.819711 142.653419z" fill="#F2F9FF" p-id="17693"></path><path d="M267.792953 404.726112h274.275916v11.143915H267.792953zM153.656094 404.726112h92.731784v11.143915H153.656094zM153.656094 432.578839h388.412775v11.143915h-388.412775zM153.656094 460.431566h194.206387v11.143915h-194.206387z" fill="#B8D1E6" p-id="17694"></path><path d="M161.445536 210.576221h56.785947v175.167099h-56.785947z" fill="#FF6D3B" p-id="17695"></path><path d="M238.534878 304.32494h56.785948v81.41838h-56.785948z" fill="#B8D1E6" p-id="17696"></path><path d="M315.638345 238.852671h56.785948v146.890649h-56.785948z" fill="#2A445E" p-id="17697"></path><path d="M392.727688 353.441501h56.785948v32.301819h-56.785948z" fill="#21D8DE" p-id="17698"></path><path d="M489.696703 215.138305h28.248202v6.009805h-28.248202zM522.429307 215.138305h11.85012v6.009805h-11.85012zM489.696703 263.329737h44.582724v6.009805h-44.582724zM527.238563 287.425454h7.033802v6.016867h-7.033802zM489.696703 287.425454h33.777787v6.016867h-33.777787zM489.696703 239.234021h8.262599v6.009805h-8.262599zM503.693687 239.234021h12.549264v6.009805h-12.549264zM521.723102 239.234021h12.549263v6.009805h-12.549263z" fill="#B8D1E6" p-id="17699"></path><path d="M481.391732 218.146739a7.563456 7.563456 0 1 1-7.570519-7.570518 7.563456 7.563456 0 0 1 7.570519 7.563456z" fill="#2A445E" p-id="17700"></path><path d="M481.391732 242.235393a7.563456 7.563456 0 1 1-7.570519-7.570518 7.556394 7.556394 0 0 1 7.570519 7.570518z" fill="#B8D1E6" p-id="17701"></path><path d="M481.391732 266.331109a7.563456 7.563456 0 1 1-7.570519-7.563456 7.556394 7.556394 0 0 1 7.570519 7.563456z" fill="#FF6D3B" p-id="17702"></path><path d="M481.391732 290.426825a7.563456 7.563456 0 1 1-7.570519-7.570518 7.556394 7.556394 0 0 1 7.570519 7.570518z" fill="#21D8DE" p-id="17703"></path><path d="M153.656094 504.682374H337.777873v78.946662H153.656094zM357.940027 504.682374h184.12178v78.946662H357.940027z" fill="#B8D1E6" p-id="17704"></path><path d="M153.656094 618.572062h388.412775v11.143915h-388.412775z" fill="#50667E" p-id="17705"></path><path d="M153.656094 646.431851h388.412775v11.143915h-388.412775zM153.656094 674.29164H347.876606v11.143915H153.656094zM639.772337 86.700793a55.994998 55.994998 0 0 1 55.96675 55.959688H583.819711a55.980874 55.980874 0 0 1 55.952626-55.959688z" fill="#B8D1E6" p-id="17706"></path><path d="M111.912314 810.892882V754.933194a55.973812 55.973812 0 0 1-55.959688 55.959688z" fill="#CEE2F2" p-id="17707"></path><path d="M55.952626 810.892882A55.980874 55.980874 0 0 1 0 754.933194h471.900336a55.980874 55.980874 0 0 0 55.96675 55.959688z" fill="#B8D1E6" p-id="17708"></path><path d="M643.035004 311.203378h88.96065v177.963671H643.035004z" fill="#FFFFFF" p-id="17709"></path><path d="M731.988592 382.268791v106.90532c12.217347-18.375455 29.10271-29.745357 47.788895-29.745356 37.174634 0 67.308403 45.126502 67.308403 100.817832 0 40.684473-16.080289 75.712243-39.279124 91.658353h-17.746933v-26.694551h-58.071241v13.347275h16.052041v98.74159c78.473505-9.180666 139.687358-84.935281 139.687358-177.059729 0-98.289618-69.716562-177.963672-155.739399-177.963672z" fill="#CEE2F2" p-id="17710"></path><path d="M663.493765 640.78221h48.043129v35.599797h-48.043129z" fill="#20364D" p-id="17711"></path><path d="M643.035004 651.90494h147.024829v13.347275H643.035004zM595.394412 607.40696h194.665421v17.796367H595.394412z" fill="#2A445E" p-id="17712"></path><path d="M655.937371 489.174111h63.170041v55.408848h-63.170041zM655.937371 255.82984h63.170041v55.373538h-63.170041z" fill="#CEE2F2" p-id="17713"></path><path d="M651.919064 241.578622h71.178407v14.251218H651.919064z" fill="#2A445E" p-id="17714"></path><path d="M700.866136 580.161569a8.869935 8.869935 0 0 1-2.620021 6.285225 8.721632 8.721632 0 0 1-6.285225 2.612959h-8.898184a8.898184 8.898184 0 0 1-8.905245-8.898184v-35.585672h26.708675z" fill="#FFFFFF" p-id="17715"></path><path d="M609.61032 500.769998l6.285225-15.713062 109.49003 43.805899-6.285225 15.713062z" fill="#2A445E" p-id="17716"></path><path d="M609.61032 500.77706l45.966886 43.798837h63.530206l-109.497092-43.798837z" fill="#20364D" p-id="17717"></path><path d="M617.717554 557.647752a8.827563 8.827563 0 0 1-12.57045 0.310731l-6.447652-6.143984a8.728694 8.728694 0 0 1-2.768324-6.214605 8.926432 8.926432 0 0 1 2.436407-6.377031l24.561812-25.76236 19.307646 18.410765z" fill="#FFFFFF" p-id="17718"></path><path d="M887.727991 757.496718h-127.597128v-64.052797a24.943162 24.943162 0 0 1 24.921976-24.929038h0.593212a24.801921 24.801921 0 0 1 17.32321 6.991429zM553.798935 775.30721a12.443333 12.443333 0 0 0-12.450395 12.43627v23.149402h44.490918a5.402469 5.402469 0 0 1 1.574837-3.785259 5.345972 5.345972 0 0 1 3.785259-1.553651h300.751543a5.367158 5.367158 0 0 1 5.353034 5.33891h44.46267v-23.149402a12.443333 12.443333 0 0 0-12.429209-12.43627z" fill="#2A445E" p-id="17719"></path><path d="M919.535466 775.30721H563.601061v-8.905246a8.940556 8.940556 0 0 1 8.898183-8.905246h338.145101a8.961742 8.961742 0 0 1 8.891121 8.898184z" fill="#20364D" p-id="17720"></path><path d="M792.178448 693.443921a7.125609 7.125609 0 1 1-7.125609-7.132671 7.132671 7.132671 0 0 1 7.125609 7.132671z" fill="#FFFFFF" p-id="17721"></path><path d="M771.952736 382.268791a39.957081 39.957081 0 1 1-39.964144-39.942957 39.971206 39.971206 0 0 1 39.971206 39.950019z" fill="#2A445E" p-id="17722"></path><path d="M748.838644 382.268791a16.857114 16.857114 0 1 1-16.850052-16.835928 16.821804 16.821804 0 0 1 16.850052 16.84299z" fill="#FFFFFF" p-id="17723"></path></svg>