<svg t="1690548385000" class="icon" viewBox="0 0 1024 1024" version="1.1" xmlns="http://www.w3.org/2000/svg" p-id="5417" width="200" height="200"><path d="M896 960H128a32 32 0 0 1-32-32v-576A32 32 0 0 1 128 320h128a32 32 0 0 1 0 64H160v512h704V384H768a32 32 0 0 1 0-64h128a32 32 0 0 1 32 32v576a32 32 0 0 1-32 32z" fill="#ffffff" p-id="5418"></path><path d="M736 608h-448a32 32 0 0 1 0-64h448a32 32 0 0 1 0 64zM736 800h-448a32 32 0 0 1 0-64h448a32 32 0 0 1 0 64zM512 480a32 32 0 0 1-32-32V128a32 32 0 0 1 64 0v320a32 32 0 0 1-32 32z" fill="#ffffff" p-id="5419"></path><path d="M640 288a30.08 30.08 0 0 1-22.4-9.6L512 173.44 406.4 278.4a31.36 31.36 0 1 1-44.8-44.8l128-128a30.72 30.72 0 0 1 44.8 0l128 128a30.72 30.72 0 0 1 0 44.8 30.08 30.08 0 0 1-22.4 9.6z" fill="#ffffff" p-id="5420"></path></svg>