<svg t="1692365685061" class="icon" viewBox="0 0 1024 1024" version="1.1" xmlns="http://www.w3.org/2000/svg" p-id="15283" width="200" height="200"><path d="M396.33 343.61l-8-20.17-20.89-88.92-8.81-43.08q-4.09-14-15.16-14.06-8.13 0-41.35 48.5-24.37 35.52-40.33 62.93c-9.17 1.95-13.72 6.39-13.72 13.31a12.88 12.88 0 0 0 2.36 7.66q-21.12 40.61-21.15 46.71a11.52 11.52 0 0 0 4.41 9.19 15.16 15.16 0 0 0 10 3.72 13.79 13.79 0 0 0 12.19-7.18q16.93-32.18 24-49l37.28-7q23.06-4.6 37.46-6.4a394.7 394.7 0 0 0 9.14 40.34q9.5 30.23 22.41 30.2a14.89 14.89 0 0 0 9.94-3.72 11.49 11.49 0 0 0 4.35-9.19 49.84 49.84 0 0 0-4.13-13.84z m-99.79-60.51l40.08-59L348 273.51q-34.52 5.67-51.46 9.59z" fill="#436a76" p-id="15284"></path><path d="M516.51 924H193.84a89.87 89.87 0 0 1-89.76-89.76V146a89.86 89.86 0 0 1 89.76-89.75h613.51A89.86 89.86 0 0 1 897.11 146v403.93c0 20.45-11.64 37.08-32.08 37.08S831 570.38 831 549.93V146c0-8.6-15-23.6-23.61-23.6H193.84c-8.61 0-23.61 15-23.61 23.6v688.19c0 8.61 15 23.61 23.61 23.61h322.67c20.44 0 37.07 8.63 37.07 29.07A37.12 37.12 0 0 1 516.51 924z" fill="#436a76" p-id="15285"></path><path d="M252.91 504.59c-18.93 0-34.26-12.34-34.26-31.27s15.33-31.26 34.26-31.26h492.52c18.92 0 34.26 12.34 34.26 31.26s-15.34 31.27-34.26 31.27zM512 656.41c0 18.93-15.33 31.26-34.26 31.26H252.91c-18.93 0-34.26-12.33-34.26-31.26s15.33-31.26 34.26-31.26h224.84c18.93 0 34.25 12.34 34.25 31.26zM925.66 920.43l-48-47.84a164.62 164.62 0 0 0 30.88-95.7c0.35-91.35-73.69-166-165-166.31h-0.66a165.67 165.67 0 0 0-165.65 165c-0.35 91.35 73.68 166 165 166.31h0.62a166.39 166.39 0 0 0 98.22-32.25l47.76 47.59a18.28 18.28 0 0 0 25.61 0.23l11.2-11.19a18.31 18.31 0 0 0 0-25.88z m-182.76-30.6a113 113 0 0 1 0.39-226h0.4c62.1 0.22 112.6 50.91 112.59 113a113.52 113.52 0 0 1-113.38 113z" fill="#436a76" p-id="15286"></path></svg>