<svg t="1689775791192" class="icon" viewBox="0 0 1024 1024" version="1.1" xmlns="http://www.w3.org/2000/svg" p-id="1590" width="200" height="200"><path d="M514.410534 513.628224m-508.819876 0a508.819876 508.819876 0 1 0 1017.639752 0 508.819876 508.819876 0 1 0-1017.639752 0Z" fill="#2283F6" p-id="1591"></path><path d="M514.410534 513.628224m-355.442484 0a355.442484 355.442484 0 1 0 710.884969 0 355.442484 355.442484 0 1 0-710.884969 0Z" fill="#51E4C2" p-id="1592"></path><path d="M867.512447 797.301665H161.314981a12.720497 12.720497 0 0 1-12.720497-12.720497V242.67528a12.720497 12.720497 0 0 1 12.720497-12.720497h706.197466a12.720497 12.720497 0 0 1 12.720497 12.720497v541.905888a12.720497 12.720497 0 0 1-12.720497 12.720497z" fill="#FFFFFF" p-id="1593"></path><path d="M514.416894 229.954783H161.308621a12.720497 12.720497 0 0 0-12.720497 12.720497v541.905888a12.720497 12.720497 0 0 0 12.720497 12.720497h353.095553V229.954783z" fill="#51E4C2" p-id="1594"></path><path d="M867.512447 771.860671H161.314981a12.720497 12.720497 0 0 1-12.720497-12.720497v19.080745a12.720497 12.720497 0 0 0 12.720497 12.720497h706.197466a12.720497 12.720497 0 0 0 12.720497-12.720497v-19.080745a12.720497 12.720497 0 0 1-12.720497 12.720497z" fill="#51E4C2" p-id="1595"></path><path d="M503.267379 229.954783h22.292671v567.340521h-22.292671z" fill="#51E4C2" p-id="1596"></path><path d="M535.323031 326.331627h-41.818633a9.858385 9.858385 0 1 1 0-19.71677h41.818633a9.858385 9.858385 0 1 1 0 19.71677z" fill="#FE3D50" p-id="1597"></path><path d="M535.323031 316.479602h-41.818633a9.858385 9.858385 0 1 1 0-19.71677h41.818633a9.858385 9.858385 0 1 1 0 19.71677z" fill="#FE3D50" p-id="1598"></path><path d="M535.323031 460.176696h-41.818633a9.858385 9.858385 0 0 1 0-19.716771h41.818633a9.858385 9.858385 0 1 1 0 19.716771z" fill="#FE3D50" p-id="1599"></path><path d="M535.323031 450.318311h-41.818633a9.858385 9.858385 0 0 1 0-19.716771l41.818633 0.006361a9.858385 9.858385 0 1 1 0 19.71677z" fill="#FE3D50" p-id="1600"></path><path d="M535.323031 594.021764h-41.818633a9.858385 9.858385 0 1 1 0-19.71677h41.818633a9.858385 9.858385 0 1 1 0 19.71677z" fill="#FE3D50" p-id="1601"></path><path d="M535.323031 584.163379h-41.818633a9.858385 9.858385 0 0 1 0-19.71677l41.818633 0.00636a9.858385 9.858385 0 1 1 0 19.71677z" fill="#FE3D50" p-id="1602"></path><path d="M535.323031 727.866832h-41.818633a9.858385 9.858385 0 0 1 0-19.71677h41.818633a9.858385 9.858385 0 1 1 0 19.71677z" fill="#FE3D50" p-id="1603"></path><path d="M535.323031 718.008447h-41.818633a9.858385 9.858385 0 1 1 0-19.71677l41.818633 0.00636a9.858385 9.858385 0 1 1 0 19.71677z" fill="#FE3D50" p-id="1604"></path><path d="M207.10877 300.375453H455.902609v9.743901H207.10877zM207.10877 435.594335H455.902609v9.743901H207.10877zM207.10877 570.813217H455.902609v9.743901H207.10877zM207.10877 706.032099H455.902609v9.743901H207.10877zM572.92482 300.375453h248.793838v9.743901H572.92482zM572.92482 435.594335h248.793838v9.743901H572.92482zM572.92482 570.813217h248.793838v9.743901H572.92482zM572.92482 706.032099h248.793838v9.743901H572.92482z" fill="#51E4C2" p-id="1605"></path><path d="M572.92482 393.260522h216.992596v14.882981H572.92482zM572.92482 342.79195h248.793838v14.882982H572.92482z" fill="#51E4C2" p-id="1606"></path><path d="M572.92482 524.357963h216.992596v14.882981H572.92482zM572.92482 473.889391h248.793838v14.882982H572.92482z" fill="#DF71F5" p-id="1607"></path><path d="M935.013764 404.46728l-39.17913-39.179131 17.287155-17.287155 39.17913 39.17913z" fill="#FFFFFF" p-id="1608"></path><path d="M674.230857 665.243826l-39.17913-39.17913 264.929789-264.923429 39.17913 39.179131z" fill="#F8E71C" p-id="1609"></path><path d="M669.587876 660.600845l-17.166311-17.166311 264.929789-264.923428 17.15995 17.15995z" fill="#FE3D50" p-id="1610"></path><path d="M617.853615 674.31354l17.204472-48.248844 39.17913 39.17913-48.255205 17.198112a6.360248 6.360248 0 0 1-8.128397-8.122037z" fill="#534741" p-id="1611"></path><path d="M948.154037 391.327006l-39.17913-39.17913 31.559553-31.559553a19.080745 19.080745 0 0 1 26.986534 0l12.192596 12.192596a19.080745 19.080745 0 0 1 0 26.980174l-31.559553 31.565913z" fill="#F8E71C" p-id="1612"></path><path d="M822.221118 490.845814l-12.765019-12.765019 99.238957-99.232596 12.765019 12.765018zM950.52005 393.693019l-43.911156-43.911156 16.11687-16.110509 43.904795 43.904795z" fill="#534741" p-id="1613"></path><path d="M233.968099 369.873888m-25.530037 0a25.530037 25.530037 0 1 0 51.060075 0 25.530037 25.530037 0 1 0-51.060075 0Z" fill="#FE3D50" p-id="1614"></path><path d="M267.900025 369.873888m-25.530037 0a25.530037 25.530037 0 1 0 51.060074 0 25.530037 25.530037 0 1 0-51.060074 0Z" fill="#F8E71C" p-id="1615"></path><path d="M301.83195 369.873888m-25.530037 0a25.530037 25.530037 0 1 0 51.060075 0 25.530037 25.530037 0 1 0-51.060075 0Z" fill="#2283F6" p-id="1616"></path></svg>